<?xml version="1.0" encoding="utf-8"?>
<!-- Generator: Adobe Illustrator 16.0.0, SVG Export Plug-In . SVG Version: 6.00 Build 0)  -->
<!DOCTYPE svg PUBLIC "-//W3C//DTD SVG 1.1//EN" "http://www.w3.org/Graphics/SVG/1.1/DTD/svg11.dtd">
<svg version="1.1" xmlns="http://www.w3.org/2000/svg" xmlns:xlink="http://www.w3.org/1999/xlink" x="0px" y="0px" width="200px"
	 height="200px" viewBox="0 0 200 200" enable-background="new 0 0 200 200" xml:space="preserve">
<g id="Layer_3" display="none">
	<rect display="inline" width="200" height="200"/>
	<linearGradient id="SVGID_1_" gradientUnits="userSpaceOnUse" x1="0" y1="331.5" x2="200" y2="331.5">
		<stop  offset="0" style="stop-color:#68FE9A"/>
		<stop  offset="1" style="stop-color:#43DCA4"/>
	</linearGradient>
	<rect y="231.5" display="inline" fill="url(#SVGID_1_)" width="200" height="200"/>
	<linearGradient id="SVGID_2_" gradientUnits="userSpaceOnUse" x1="218.5" y1="275" x2="330" y2="275">
		<stop  offset="0" style="stop-color:#A0FE9A"/>
		<stop  offset="1" style="stop-color:#43DCA4"/>
	</linearGradient>
	<rect x="218.5" y="231.5" display="inline" fill="url(#SVGID_2_)" width="111.5" height="87"/>
</g>
<g id="Layer_1" display="none">
	<title>Asset 76</title>
	<g display="inline">
		
			<linearGradient id="SVGID_3_" gradientUnits="userSpaceOnUse" x1="7.145" y1="95.1675" x2="191.5732" y2="95.1675" gradientTransform="matrix(1 0 0 -1 0.1401 199.0547)">
			<stop  offset="0" style="stop-color:#68FE9A"/>
			<stop  offset="1" style="stop-color:#43DCA4"/>
		</linearGradient>
		<path fill="url(#SVGID_3_)" d="M191.358,144.369c-1.156-3.346-4.807-5.116-8.149-3.961l-15.683,5.427
			c-6.654,2.151-13.432,3.202-20.127,3.202c-8.149-0.003-16.17-1.569-23.678-4.598c6.036-6.285,9.127-14.387,9.119-22.418
			c0.014-8.209-3.234-16.451-9.66-22.528L77.848,54.159c-5.426-5.439-12.56-8.244-19.665-8.234
			c-7.103-0.01-14.237,2.795-19.665,8.234L11.886,80.794c-3.091,3.09-4.605,7.182-4.601,11.189
			c-0.004,4.006,1.513,8.098,4.601,11.188c3.001,3.011,7.084,4.593,11.19,4.581c2.949,0.002,5.926-0.795,8.621-2.335l0.406-0.25
			l25.283-17.029l9.896,9.898L52.389,112.93c-7.698,0.106-15.416,1.361-22.866,3.848l-0.069,0.023l-15.739,5.447
			c-3.343,1.157-5.117,4.807-3.958,8.15c1.159,3.345,4.808,5.117,8.152,3.961l-0.002-0.004l15.671-5.424v0.002
			c6.453-2.153,13.163-3.209,19.863-3.209c15.515-0.002,30.934,5.668,42.821,16.412c3.681,3.328,7.627,6.241,11.772,8.747
			c0.033,0.036,0.064,0.075,0.1,0.111c0.877,0.877,1.946,1.438,3.072,1.7c11.143,6.024,23.564,9.158,36.193,9.154
			c8.06,0,16.201-1.27,24.145-3.848l0.116-0.038l15.739-5.446C190.742,151.361,192.517,147.712,191.358,144.369z M68.936,114.507
			l11.939-11.938c1.193-1.195,1.876-2.844,1.878-4.532c0-1.686-0.685-3.337-1.878-4.53l-18.16-18.16
			c-2.161-2.161-5.576-2.491-8.11-0.785l-29.43,19.82c-0.778,0.407-1.488,0.556-2.099,0.556c-0.928-0.011-1.605-0.312-2.128-0.826
			c-0.544-0.542-0.844-1.294-0.848-2.129c0.004-0.837,0.304-1.588,0.846-2.128L47.582,63.22c3.046-3.038,6.809-4.471,10.601-4.481
			c3.792,0.01,7.556,1.443,10.603,4.481l45.398,45.398l0.142,0.136c3.812,3.6,5.688,8.342,5.7,13.268
			c-0.006,4.92-1.907,9.916-5.842,13.856l-2.279,2.28c-2.45-1.66-4.809-3.504-7.053-5.531
			C94.534,123.312,82.062,117.205,68.936,114.507z"/>
		
			<linearGradient id="SVGID_4_" gradientUnits="userSpaceOnUse" x1="112.168" y1="131.2852" x2="173.4121" y2="131.2852" gradientTransform="matrix(1 0 0 -1 0.1401 199.0547)">
			<stop  offset="0" style="stop-color:#68FE9A"/>
			<stop  offset="1" style="stop-color:#43DCA4"/>
		</linearGradient>
		<path fill="url(#SVGID_4_)" d="M142.931,98.39c16.914-0.004,30.615-13.705,30.621-30.621
			c-0.006-16.914-13.707-30.617-30.621-30.621c-16.912,0.004-30.617,13.707-30.623,30.621
			C112.312,84.685,126.019,98.386,142.931,98.39z M142.931,49.964c9.832,0.018,17.789,7.973,17.805,17.805
			c-0.016,9.833-7.973,17.79-17.805,17.806c-9.83-0.016-17.791-7.974-17.807-17.806C125.14,57.939,133.101,49.982,142.931,49.964z"
			/>
	</g>
</g>
<g id="Layer_2" display="none">
	<g display="inline">
		<linearGradient id="SVGID_5_" gradientUnits="userSpaceOnUse" x1="-1.3862" y1="17.6514" x2="201.3861" y2="17.6514">
			<stop  offset="0" style="stop-color:#A0FE9A"/>
			<stop  offset="1" style="stop-color:#43DCA4"/>
		</linearGradient>
		<path fill="url(#SVGID_5_)" d="M165.82,14.905C147.318,8.14,129.234,4.614,112.071,4.43C98.305,4.28,85.108,6.269,72.833,10.333
			C51.87,17.276,41.009,27.75,40.557,28.192c-0.619,0.605-0.629,1.599-0.023,2.217c0.307,0.314,0.714,0.472,1.121,0.472
			c0.395,0,0.791-0.149,1.096-0.447c0.105-0.104,10.787-10.407,31.068-17.124c11.945-3.956,24.811-5.887,38.218-5.744
			c16.807,0.182,34.54,3.642,52.706,10.285c0.812,0.297,1.714-0.12,2.012-0.934S166.634,15.203,165.82,14.905z"/>
		<linearGradient id="SVGID_6_" gradientUnits="userSpaceOnUse" x1="-13.3726" y1="113.2295" x2="454.2834" y2="113.2295">
			<stop  offset="0" style="stop-color:#68FE9A"/>
			<stop  offset="1" style="stop-color:#43DCA4"/>
		</linearGradient>
		<path fill="url(#SVGID_6_)" d="M17.255,132.424c14.175,1.042,30.846,1.941,37.657,1.922c3.363-5.57,10.408-19.508,16.052-31.4
			c2.089-4.4,7.349-6.273,11.749-4.186s6.274,7.348,4.186,11.748c-0.041,0.088-4.217,8.879-8.699,17.723
			c-9.883,19.496-11.92,21.14-14.941,22.549c-1.402,0.655-2.561,1.195-8.938,1.195c-3.759,0-9.329-0.188-17.832-0.649
			c-10.327-0.562-20.425-1.303-20.526-1.31c-4.857-0.357-8.506-4.584-8.148-9.442C8.17,135.716,12.401,132.07,17.255,132.424z
			 M128.445,32.156c-9.509-0.204-17.382,7.338-17.586,16.846c-0.044,2.071,0.279,4.065,0.91,5.92
			c10.867-5.19,21.936-9.66,31.699-13.268C140.697,36.138,135.047,32.298,128.445,32.156z M185.351,30.881
			c-3.788,0-6.859,3.07-6.859,6.859c0,3.788,3.071,6.859,6.859,6.859c3.789,0,6.86-3.071,6.86-6.859
			C192.211,33.951,189.14,30.881,185.351,30.881z M144.188,55.448c-7.345,2.812-15.239,6.064-23.042,9.689
			c2.012,0.886,4.226,1.399,6.56,1.45C135.205,66.748,141.685,62.089,144.188,55.448z M169.222,39.789
			c-1.026-2.78-4.414-4.263-7.564-3.314c-1.731,0.522-42.729,12.993-70.243,31.369c-2.666,1.78-3.229,5.118-1.26,7.455
			c1.244,1.477,3.203,2.201,5.149,2.084c1.134-0.068,2.263-0.421,3.243-1.076c25.927-17.315,66.419-29.642,66.826-29.765
			C168.523,45.592,170.247,42.568,169.222,39.789z M88.833,116.348c-0.506-0.755-1.125-1.387-1.813-1.902
			c-1.504,3.572-4.006,9.151-7.611,16.082c3.444,5.291,6.655,10.438,7.73,12.521c0.406,5.387,2.096,29.113,3.237,45.244
			c0.292,4.131,3.733,7.287,7.812,7.286c0.186,0,0.374-0.006,0.562-0.02c4.319-0.307,7.572-4.056,7.266-8.374
			c-0.322-4.541-3.146-44.433-3.345-46.604C102.494,138.636,102.295,136.432,88.833,116.348z M110.855,69.968
			c-4.697,2.565-9.254,5.305-13.476,8.206c-1.078,0.74-2.293,1.095-3.494,1.095c-2.064,0-4.088-1.045-5.31-2.973
			c-1.933-3.047-1.125-7.149,1.804-9.161c4.615-3.17,9.555-6.145,14.616-8.913c-4.978-3.175-11.663-2.543-15.952,1.849
			c-5.435,5.564-18.916,20.65-26.708,40.504c-1.739,4.429-0.823,9.242,1.976,12.691c1.946-3.939,3.898-7.968,5.719-11.805
			c2.335-4.918,8.214-7.012,13.131-4.68c3.008,1.427,4.956,4.18,5.486,7.227c6.195-12.649,14.839-22.262,18.624-26.137
			C109.438,75.65,110.631,72.839,110.855,69.968z"/>
	</g>
</g>
<g id="Layer_6">
	<g>
		<linearGradient id="SVGID_7_" gradientUnits="userSpaceOnUse" x1="95.9917" y1="27.7642" x2="128.7295" y2="27.7642">
			<stop  offset="0" style="stop-color:#A0FE9A"/>
			<stop  offset="1" style="stop-color:#43DCA4"/>
		</linearGradient>
		<circle fill="url(#SVGID_7_)" cx="112.36" cy="27.764" r="16.369"/>
		<linearGradient id="SVGID_8_" gradientUnits="userSpaceOnUse" x1="34.6377" y1="108.5176" x2="165.3623" y2="108.5176">
			<stop  offset="0" style="stop-color:#68FE9A"/>
			<stop  offset="1" style="stop-color:#43DCA4"/>
		</linearGradient>
		<path fill="url(#SVGID_8_)" d="M89.024,181.098c-2.184,0-4.374-0.789-6.104-2.389c-3.651-3.373-3.877-9.066-0.504-12.719
			l24.352-26.359l-19.574-10.223c-4.406-2.301-6.112-7.736-3.812-12.143c2.301-4.406,7.739-6.113,12.144-3.812l30,15.668
			c2.484,1.297,4.222,3.678,4.701,6.438c0.479,2.762-0.355,5.588-2.257,7.646l-32.333,35
			C93.864,180.125,91.448,181.098,89.024,181.098z M80.518,137.475c-5.81-1.863-9.964-6.48-11.5-11.945
			c-1.713,0.838-3.178,2.215-4.097,4.051c-4.707,9.412-18.796,35.555-27.357,43.383c-3.668,3.354-3.923,9.047-0.569,12.715
			c1.775,1.941,4.206,2.928,6.645,2.928c2.168,0,4.344-0.779,6.071-2.357c12.535-11.463,29.425-44.85,31.31-48.617
			c0.002-0.006,0.004-0.01,0.006-0.014C80.857,137.568,80.687,137.529,80.518,137.475z M160.904,29.662
			c-4.289-2.51-9.803-1.066-12.312,3.225c-8.721,14.91-12.7,21.716-46.047,17.289c-35.29-4.686-54.82,19.707-60.213,33.26
			c-1.838,4.618,0.406,9.878,5.024,11.716c1.098,0.438,2.229,0.645,3.342,0.645c3.568,0,6.937-2.132,8.338-5.652
			c0.358-0.867,7.491-17.567,26.252-21.656L70.59,114.291c-2.953,9.203,2.114,19.057,11.316,22.01
			c1.778,0.57,3.579,0.842,5.351,0.842c2.77,0,5.465-0.662,7.88-1.881l-8.072-4.217c-5.091-2.658-7.062-8.939-4.403-14.029
			c2.659-5.092,8.941-7.062,14.03-4.404l9.588,5.008l13.911-43.353c0.52-1.618,0.777-3.256,0.821-4.874
			c25.236-0.539,33.677-11.277,43.117-27.418C166.639,37.683,165.195,32.171,160.904,29.662z"/>
	</g>
</g>
<g id="Layer_7" display="none">
	<g display="inline">
		<linearGradient id="SVGID_9_" gradientUnits="userSpaceOnUse" x1="18.4658" y1="72.082" x2="55.6895" y2="72.082">
			<stop  offset="0" style="stop-color:#A0FE9A"/>
			<stop  offset="1" style="stop-color:#43DCA4"/>
		</linearGradient>
		<path fill="url(#SVGID_9_)" d="M55.423,68.889c0.791,4.688-0.164,9.707-3.084,13.938l-0.25,0.364
			c-2.932,4.05-7.224,6.571-11.83,7.358c-4.593,0.786-9.503-0.157-13.683-3.033l-0.359-0.248l-0.002,0.003
			c-4.117-2.947-6.686-7.363-7.483-12.105c-0.79-4.692,0.163-9.714,3.078-13.948c0.228-0.33,0.037-0.07,0.17-0.256l0.006,0.004
			c2.953-4.125,7.358-6.616,12.037-7.372c4.651-0.752,9.594,0.222,13.653,3.024c0.115,0.079,0.198,0.137,0.246,0.172
			C52.05,59.735,54.626,64.15,55.423,68.889L55.423,68.889z"/>
		<linearGradient id="SVGID_10_" gradientUnits="userSpaceOnUse" x1="19.7993" y1="100" x2="181.5342" y2="100">
			<stop  offset="0" style="stop-color:#68FE9A"/>
			<stop  offset="1" style="stop-color:#43DCA4"/>
		</linearGradient>
		<path fill="url(#SVGID_10_)" d="M150.766,81.43l-25-18.167l-10.334,5l42.265,28.488c1.732,3.218,2.148,5.61,0.931,7.342
			c-0.107,0.151-0.224,0.293-0.348,0.425c-2.243,2.667-5.043,4.842-8.217,6.342c-3.151,1.488-6.659,2.321-10.347,2.321
			c-4.615,0-8.939-1.299-12.628-3.553c-2.07-1.265-3.937-2.835-5.539-4.649c-2.007,2.284-4.365,4.086-6.93,5.406
			c-3.513,1.81-7.413,2.712-11.314,2.711c-3.891-0.002-7.789-0.906-11.306-2.712c-2.737-1.405-5.241-3.346-7.332-5.818
			c-1.3,1.242-2.744,2.355-4.294,3.326c-4.05,2.536-8.844,4.104-13.627,4.396c-4.911,0.299-9.861-0.735-14.087-3.426
			c-2.546-1.62-4.805-3.835-6.605-6.71c-0.768-1.228-0.753-2.722-0.09-3.901l0,0c2.079-3.687,5.913-9.42,9.739-15.144
			c3.568-5.338,5.132-6.669,7.114-10.094c0.117-0.201,0.249-0.388,0.394-0.559c1.801-2.382,3.625-4.288,5.463-5.768
			c1.919-1.545,3.875-2.645,5.857-3.35c11.685-5.635,42.978-16.792,43.077-16.836c0.074-0.032,0.148-0.062,0.223-0.089
			c4.784-2.106,10.029-2.485,14.92-1.356c4.938,1.138,6.765,3.371,12.956,7.775l26.42,20.516c0.158,0.145,0.3,0.3,0.428,0.464
			c2.814,3.367,3.698,3.366,3.638,6.567c-1.278,3.701-1.021,3.225-4.382,6.095c-0.122,0.104-0.248,0.199-0.379,0.285l0.001,0.002
			c-3.709,1.751-4.774,1.503-8.75,1C158.834,87.276,155.444,85.051,150.766,81.43L150.766,81.43z M172.305,148.2
			c1.867-0.443,3.738,0.712,4.181,2.578c0.443,1.867-0.713,3.739-2.579,4.181c-0.826,0.196-1.687,0.347-2.574,0.451
			c-0.885,0.103-1.751,0.154-2.595,0.154c-4.608,0-8.966-1.417-12.523-3.872c-1.688-1.166-3.194-2.563-4.461-4.154
			c-1.268,1.591-2.774,2.988-4.462,4.154c-3.558,2.455-7.915,3.872-12.524,3.872c-4.604,0-8.96-1.416-12.518-3.869
			c-1.688-1.163-3.194-2.561-4.462-4.151c-1.267,1.591-2.774,2.988-4.462,4.151c-3.559,2.453-7.913,3.869-12.519,3.869
			c-4.608,0-8.966-1.417-12.524-3.872c-1.688-1.166-3.193-2.563-4.461-4.154c-1.267,1.591-2.773,2.988-4.46,4.154
			c-3.559,2.455-7.916,3.872-12.524,3.872c-4.605,0-8.96-1.416-12.519-3.869c-1.688-1.163-3.195-2.561-4.462-4.151
			c-1.269,1.591-2.774,2.988-4.463,4.151c-3.558,2.454-7.913,3.869-12.518,3.869c-0.87,0-1.757-0.054-2.652-0.16
			c-0.835-0.1-1.707-0.26-2.612-0.478c-1.858-0.45-3.002-2.322-2.553-4.182c0.451-1.858,2.322-3.002,4.183-2.552
			c0.546,0.132,1.146,0.237,1.798,0.315c0.591,0.069,1.204,0.104,1.837,0.104c3.188,0,6.172-0.958,8.581-2.619
			c2.369-1.634,4.191-3.951,5.101-6.7c0.334-1.01,1.125-1.854,2.213-2.212c1.822-0.601,3.785,0.391,4.385,2.212
			c0.909,2.749,2.73,5.066,5.101,6.7c2.408,1.661,5.393,2.619,8.581,2.619c3.189,0,6.177-0.959,8.587-2.622
			c2.37-1.636,4.191-3.956,5.1-6.709c0.333-1.011,1.124-1.855,2.213-2.213c1.821-0.6,3.785,0.392,4.384,2.213
			c0.908,2.753,2.729,5.073,5.1,6.709c2.409,1.663,5.396,2.622,8.586,2.622c3.188,0,6.173-0.958,8.581-2.619
			c2.37-1.634,4.191-3.951,5.101-6.7c0.333-1.01,1.125-1.854,2.213-2.212c1.821-0.601,3.785,0.391,4.385,2.212
			c0.909,2.749,2.73,5.066,5.101,6.7c2.408,1.661,5.393,2.619,8.58,2.619c3.191,0,6.178-0.959,8.588-2.622
			c2.369-1.636,4.19-3.956,5.099-6.709c0.334-1.011,1.126-1.855,2.213-2.213c1.822-0.6,3.785,0.392,4.385,2.213
			c0.908,2.753,2.729,5.073,5.1,6.709c2.41,1.663,5.396,2.622,8.587,2.622c0.629,0,1.233-0.033,1.808-0.1
			C171.115,148.446,171.703,148.343,172.305,148.2L172.305,148.2z M21.486,135.047c-1.643-0.982-2.177-3.11-1.195-4.752
			c0.982-1.642,3.109-2.177,4.751-1.194c1.173,0.704,2.432,1.242,3.735,1.6c1.292,0.355,2.672,0.538,4.1,0.538
			c3.188,0,6.172-0.958,8.581-2.619c2.37-1.634,4.191-3.952,5.102-6.701c0.6-1.821,2.562-2.812,4.384-2.212
			c1.088,0.357,1.88,1.202,2.213,2.212c0.909,2.749,2.731,5.067,5.101,6.701c2.408,1.661,5.394,2.619,8.581,2.619
			c3.19,0,6.177-0.96,8.587-2.623c2.37-1.636,4.191-3.956,5.1-6.709c0.6-1.821,2.563-2.812,4.385-2.212
			c1.087,0.357,1.88,1.202,2.213,2.212c0.907,2.753,2.729,5.073,5.099,6.709c2.41,1.663,5.396,2.623,8.586,2.623
			c3.188,0,6.173-0.958,8.581-2.619c2.37-1.634,4.191-3.952,5.102-6.701c0.599-1.821,2.562-2.812,4.384-2.212
			c1.088,0.357,1.88,1.202,2.213,2.212c0.909,2.749,2.731,5.067,5.101,6.701c2.408,1.661,5.394,2.619,8.581,2.619
			c3.19,0,6.177-0.96,8.587-2.622c2.369-1.637,4.191-3.957,5.1-6.71c0.6-1.821,2.562-2.812,4.384-2.212
			c1.089,0.357,1.88,1.202,2.214,2.212c0.907,2.752,2.729,5.073,5.099,6.709c2.41,1.663,5.396,2.623,8.587,2.623
			c1.367,0,2.703-0.173,3.97-0.509c1.29-0.343,2.517-0.844,3.642-1.493c1.657-0.953,3.772-0.381,4.725,1.276
			c0.952,1.656,0.381,3.771-1.275,4.724c-1.682,0.97-3.474,1.708-5.326,2.199c-1.875,0.497-3.805,0.753-5.734,0.753
			c-4.608,0-8.966-1.417-12.523-3.872c-1.688-1.165-3.194-2.563-4.461-4.154c-1.268,1.591-2.773,2.989-4.462,4.154
			c-3.558,2.455-7.915,3.872-12.523,3.872c-4.605,0-8.96-1.415-12.519-3.868c-1.688-1.164-3.194-2.562-4.461-4.152
			c-1.268,1.591-2.775,2.988-4.463,4.152c-3.558,2.453-7.913,3.868-12.519,3.868c-4.608,0-8.965-1.417-12.524-3.872
			c-1.687-1.165-3.193-2.563-4.461-4.154c-1.267,1.591-2.772,2.989-4.46,4.154c-3.559,2.455-7.916,3.872-12.523,3.872
			c-4.605,0-8.961-1.415-12.519-3.868c-1.688-1.164-3.195-2.562-4.463-4.152c-1.268,1.591-2.774,2.988-4.462,4.152
			c-3.558,2.453-7.913,3.868-12.519,3.868c-1.98,0-3.974-0.275-5.919-0.81C25.024,136.849,23.18,136.064,21.486,135.047
			L21.486,135.047z"/>
	</g>
</g>
</svg>
