<?xml version="1.0" encoding="utf-8"?>
<!-- Generator: Adobe Illustrator 16.0.0, SVG Export Plug-In . SVG Version: 6.00 Build 0)  -->
<!DOCTYPE svg PUBLIC "-//W3C//DTD SVG 1.1//EN" "http://www.w3.org/Graphics/SVG/1.1/DTD/svg11.dtd">
<svg version="1.1" xmlns="http://www.w3.org/2000/svg" xmlns:xlink="http://www.w3.org/1999/xlink" x="0px" y="0px" width="200px"
	 height="200px" viewBox="0 0 200 200" enable-background="new 0 0 200 200" xml:space="preserve">
<g id="Layer_3" display="none">
	<rect display="inline" width="200" height="200"/>
	<linearGradient id="SVGID_1_" gradientUnits="userSpaceOnUse" x1="0" y1="331.5" x2="200" y2="331.5">
		<stop  offset="0" style="stop-color:#68FE9A"/>
		<stop  offset="1" style="stop-color:#43DCA4"/>
	</linearGradient>
	<rect y="231.5" display="inline" fill="url(#SVGID_1_)" width="200" height="200"/>
	<linearGradient id="SVGID_2_" gradientUnits="userSpaceOnUse" x1="218.5" y1="275" x2="330" y2="275">
		<stop  offset="0" style="stop-color:#A0FE9A"/>
		<stop  offset="1" style="stop-color:#43DCA4"/>
	</linearGradient>
	<rect x="218.5" y="231.5" display="inline" fill="url(#SVGID_2_)" width="111.5" height="87"/>
</g>
<g id="Layer_1" display="none">
	<title>Asset 76</title>
	<g display="inline">
		
			<linearGradient id="SVGID_3_" gradientUnits="userSpaceOnUse" x1="7.145" y1="-136.8335" x2="191.5732" y2="-136.8335" gradientTransform="matrix(1 0 0 -1 0.1401 199.0547)">
			<stop  offset="0" style="stop-color:#68FE9A"/>
			<stop  offset="1" style="stop-color:#43DCA4"/>
		</linearGradient>
		<path fill="url(#SVGID_3_)" d="M191.358,376.37c-1.156-3.346-4.807-5.116-8.149-3.961l-15.683,5.427
			c-6.654,2.151-13.432,3.202-20.127,3.202c-8.149-0.003-16.17-1.569-23.678-4.598c6.036-6.285,9.127-14.387,9.119-22.418
			c0.014-8.209-3.234-16.451-9.66-22.528L77.848,286.16c-5.426-5.439-12.56-8.244-19.665-8.234
			c-7.103-0.01-14.237,2.795-19.665,8.234l-26.632,26.635c-3.091,3.09-4.605,7.182-4.601,11.189
			c-0.004,4.006,1.513,8.098,4.601,11.188c3.001,3.011,7.084,4.593,11.19,4.581c2.949,0.002,5.926-0.795,8.621-2.335l0.406-0.25
			l25.283-17.029l9.896,9.898l-14.893,14.894c-7.698,0.106-15.416,1.361-22.866,3.848l-0.069,0.023l-15.739,5.447
			c-3.343,1.157-5.117,4.807-3.958,8.15c1.159,3.345,4.808,5.117,8.152,3.961l-0.002-0.004l15.671-5.424v0.002
			c6.453-2.153,13.163-3.209,19.863-3.209c15.515-0.002,30.934,5.668,42.821,16.412c3.681,3.328,7.627,6.241,11.772,8.747
			c0.033,0.036,0.064,0.075,0.1,0.111c0.877,0.877,1.946,1.438,3.072,1.7c11.143,6.024,23.564,9.158,36.193,9.154
			c8.06,0,16.201-1.27,24.145-3.848l0.116-0.038l15.739-5.446C190.742,383.362,192.517,379.713,191.358,376.37z M68.936,346.508
			l11.939-11.938c1.193-1.195,1.876-2.845,1.878-4.532c0-1.686-0.685-3.337-1.878-4.53l-18.16-18.159
			c-2.161-2.162-5.576-2.492-8.11-0.785l-29.43,19.819c-0.778,0.407-1.488,0.556-2.099,0.556c-0.928-0.011-1.605-0.312-2.128-0.826
			c-0.544-0.541-0.844-1.293-0.848-2.129c0.004-0.836,0.304-1.588,0.846-2.127l26.636-26.635c3.046-3.037,6.809-4.471,10.601-4.48
			c3.792,0.01,7.556,1.443,10.603,4.48l45.398,45.398l0.142,0.136c3.812,3.6,5.688,8.342,5.7,13.268
			c-0.006,4.92-1.907,9.916-5.842,13.856l-2.279,2.28c-2.45-1.66-4.809-3.504-7.053-5.531
			C94.534,355.313,82.062,349.206,68.936,346.508z"/>
		
			<linearGradient id="SVGID_4_" gradientUnits="userSpaceOnUse" x1="112.168" y1="-100.7148" x2="173.4121" y2="-100.7148" gradientTransform="matrix(1 0 0 -1 0.1401 199.0547)">
			<stop  offset="0" style="stop-color:#68FE9A"/>
			<stop  offset="1" style="stop-color:#43DCA4"/>
		</linearGradient>
		<path fill="url(#SVGID_4_)" d="M142.931,330.391c16.914-0.004,30.615-13.705,30.621-30.621
			c-0.006-16.914-13.707-30.617-30.621-30.621c-16.912,0.004-30.617,13.707-30.623,30.621
			C112.312,316.686,126.019,330.387,142.931,330.391z M142.931,281.965c9.832,0.018,17.789,7.973,17.805,17.805
			c-0.016,9.834-7.973,17.791-17.805,17.807c-9.83-0.016-17.791-7.975-17.807-17.807
			C125.14,289.939,133.101,281.982,142.931,281.965z"/>
	</g>
	<g display="inline">
		
			<linearGradient id="SVGID_5_" gradientUnits="userSpaceOnUse" x1="7.646" y1="94.666" x2="192.0732" y2="94.666" gradientTransform="matrix(1 0 0 -1 0.1401 199.0547)">
			<stop  offset="0" style="stop-color:#68FE9A"/>
			<stop  offset="1" style="stop-color:#43DCA4"/>
		</linearGradient>
		<path fill="url(#SVGID_5_)" d="M191.859,144.871c-1.156-3.346-4.807-5.117-8.149-3.961l-15.683,5.426
			c-6.654,2.152-13.432,3.203-20.127,3.203c-8.149-0.004-16.17-1.57-23.678-4.598c6.036-6.285,9.127-14.387,9.119-22.418
			c0.014-8.209-3.234-16.451-9.66-22.529L78.349,54.661c-5.426-5.439-12.56-8.244-19.664-8.234
			c-7.104-0.01-14.238,2.795-19.666,8.234L12.387,81.295c-3.091,3.09-4.605,7.182-4.601,11.189
			c-0.004,4.006,1.513,8.097,4.601,11.187c3.001,3.012,7.084,4.594,11.19,4.582c2.949,0.002,5.926-0.795,8.621-2.336l0.406-0.25
			l25.283-17.029l9.896,9.898L52.89,113.432c-7.697,0.105-15.416,1.361-22.866,3.848l-0.069,0.023l-15.739,5.447
			c-3.343,1.156-5.117,4.807-3.958,8.15c1.159,3.344,4.808,5.117,8.152,3.961l-0.002-0.004l15.671-5.424v0.002
			c6.453-2.154,13.163-3.209,19.863-3.209c15.515-0.002,30.934,5.668,42.82,16.412c3.682,3.328,7.628,6.24,11.772,8.746
			c0.033,0.037,0.064,0.076,0.1,0.111c0.877,0.877,1.946,1.439,3.072,1.701c11.143,6.023,23.564,9.158,36.193,9.154
			c8.06,0,16.201-1.27,24.145-3.848l0.116-0.039l15.739-5.445C191.243,151.863,193.018,148.213,191.859,144.871z M69.437,115.008
			l11.939-11.938c1.193-1.195,1.876-2.845,1.878-4.533c0-1.686-0.685-3.337-1.878-4.53l-18.16-18.159
			c-2.16-2.162-5.576-2.492-8.109-0.785L25.676,94.882c-0.778,0.407-1.488,0.556-2.099,0.556c-0.928-0.011-1.605-0.312-2.128-0.826
			c-0.544-0.541-0.844-1.293-0.848-2.129c0.004-0.836,0.304-1.588,0.846-2.127l26.636-26.635c3.046-3.037,6.809-4.471,10.602-4.48
			c3.791,0.01,7.556,1.443,10.603,4.48l45.398,45.398l0.142,0.137c3.812,3.6,5.688,8.342,5.7,13.268
			c-0.006,4.92-1.907,9.916-5.842,13.855l-2.279,2.281c-2.45-1.66-4.809-3.504-7.053-5.531
			C95.035,123.814,82.563,117.707,69.437,115.008z"/>
		
			<linearGradient id="SVGID_6_" gradientUnits="userSpaceOnUse" x1="112.668" y1="130.7852" x2="173.9121" y2="130.7852" gradientTransform="matrix(1 0 0 -1 0.1401 199.0547)">
			<stop  offset="0" style="stop-color:#68FE9A"/>
			<stop  offset="1" style="stop-color:#43DCA4"/>
		</linearGradient>
		<path fill="url(#SVGID_6_)" d="M143.432,98.891c16.914-0.004,30.615-13.705,30.621-30.621
			c-0.006-16.914-13.707-30.617-30.621-30.621c-16.912,0.004-30.617,13.707-30.623,30.621
			C112.812,85.186,126.52,98.887,143.432,98.891z M143.432,50.465c9.832,0.018,17.789,7.973,17.805,17.805
			c-0.016,9.834-7.973,17.791-17.805,17.807c-9.83-0.016-17.791-7.975-17.807-17.807C125.641,58.44,133.602,50.483,143.432,50.465z"
			/>
	</g>
</g>
<g id="Layer_2" display="none">
	<g display="inline">
		<linearGradient id="SVGID_7_" gradientUnits="userSpaceOnUse" x1="-1.3862" y1="17.6514" x2="201.3861" y2="17.6514">
			<stop  offset="0" style="stop-color:#A0FE9A"/>
			<stop  offset="1" style="stop-color:#43DCA4"/>
		</linearGradient>
		<path fill="url(#SVGID_7_)" d="M165.82,14.905C147.318,8.14,129.234,4.614,112.071,4.43C98.305,4.28,85.108,6.269,72.833,10.333
			C51.87,17.276,41.009,27.75,40.557,28.192c-0.619,0.605-0.629,1.599-0.023,2.217c0.307,0.314,0.714,0.472,1.121,0.472
			c0.395,0,0.791-0.149,1.096-0.447c0.105-0.104,10.787-10.407,31.068-17.124c11.945-3.956,24.811-5.887,38.218-5.744
			c16.807,0.182,34.54,3.642,52.706,10.285c0.812,0.297,1.714-0.12,2.012-0.934S166.634,15.203,165.82,14.905z"/>
		<linearGradient id="SVGID_8_" gradientUnits="userSpaceOnUse" x1="-13.3726" y1="113.2295" x2="454.2834" y2="113.2295">
			<stop  offset="0" style="stop-color:#68FE9A"/>
			<stop  offset="1" style="stop-color:#43DCA4"/>
		</linearGradient>
		<path fill="url(#SVGID_8_)" d="M17.255,132.424c14.175,1.042,30.846,1.941,37.657,1.922c3.363-5.57,10.408-19.508,16.052-31.4
			c2.089-4.4,7.349-6.273,11.749-4.186s6.274,7.348,4.186,11.748c-0.041,0.088-4.217,8.879-8.699,17.723
			c-9.883,19.496-11.92,21.14-14.941,22.549c-1.402,0.655-2.561,1.195-8.938,1.195c-3.759,0-9.329-0.188-17.832-0.649
			c-10.327-0.562-20.425-1.303-20.526-1.31c-4.857-0.357-8.506-4.584-8.148-9.442C8.17,135.716,12.401,132.07,17.255,132.424z
			 M128.445,32.156c-9.509-0.204-17.382,7.338-17.586,16.846c-0.044,2.071,0.279,4.065,0.91,5.92
			c10.867-5.19,21.936-9.66,31.699-13.268C140.697,36.138,135.047,32.298,128.445,32.156z M185.351,30.881
			c-3.788,0-6.859,3.07-6.859,6.859c0,3.788,3.071,6.859,6.859,6.859c3.789,0,6.86-3.071,6.86-6.859
			C192.211,33.951,189.14,30.881,185.351,30.881z M144.188,55.448c-7.345,2.812-15.239,6.064-23.042,9.689
			c2.012,0.886,4.226,1.399,6.56,1.45C135.205,66.748,141.685,62.089,144.188,55.448z M169.222,39.789
			c-1.026-2.78-4.414-4.263-7.564-3.314c-1.731,0.522-42.729,12.993-70.243,31.369c-2.666,1.78-3.229,5.118-1.26,7.455
			c1.244,1.477,3.203,2.201,5.149,2.084c1.134-0.068,2.263-0.421,3.243-1.076c25.927-17.315,66.419-29.642,66.826-29.765
			C168.523,45.592,170.247,42.568,169.222,39.789z M88.833,116.348c-0.506-0.755-1.125-1.387-1.813-1.902
			c-1.504,3.572-4.006,9.151-7.611,16.082c3.444,5.291,6.655,10.438,7.73,12.521c0.406,5.387,2.096,29.113,3.237,45.244
			c0.292,4.131,3.733,7.287,7.812,7.286c0.186,0,0.374-0.006,0.562-0.02c4.319-0.307,7.572-4.056,7.266-8.374
			c-0.322-4.541-3.146-44.433-3.345-46.604C102.494,138.636,102.295,136.432,88.833,116.348z M110.855,69.968
			c-4.697,2.565-9.254,5.305-13.476,8.206c-1.078,0.74-2.293,1.095-3.494,1.095c-2.064,0-4.088-1.045-5.31-2.973
			c-1.933-3.047-1.125-7.149,1.804-9.161c4.615-3.17,9.555-6.145,14.616-8.913c-4.978-3.175-11.663-2.543-15.952,1.849
			c-5.435,5.564-18.916,20.65-26.708,40.504c-1.739,4.429-0.823,9.242,1.976,12.691c1.946-3.939,3.898-7.968,5.719-11.805
			c2.335-4.918,8.214-7.012,13.131-4.68c3.008,1.427,4.956,4.18,5.486,7.227c6.195-12.649,14.839-22.262,18.624-26.137
			C109.438,75.65,110.631,72.839,110.855,69.968z"/>
	</g>
</g>
<g id="Layer_6" display="none">
	<g display="inline">
		<linearGradient id="SVGID_9_" gradientUnits="userSpaceOnUse" x1="95.9917" y1="27.7642" x2="128.7295" y2="27.7642">
			<stop  offset="0" style="stop-color:#A0FE9A"/>
			<stop  offset="1" style="stop-color:#43DCA4"/>
		</linearGradient>
		<circle fill="url(#SVGID_9_)" cx="112.36" cy="27.764" r="16.369"/>
		<linearGradient id="SVGID_10_" gradientUnits="userSpaceOnUse" x1="34.6377" y1="108.5176" x2="165.3623" y2="108.5176">
			<stop  offset="0" style="stop-color:#68FE9A"/>
			<stop  offset="1" style="stop-color:#43DCA4"/>
		</linearGradient>
		<path fill="url(#SVGID_10_)" d="M89.024,181.098c-2.184,0-4.374-0.789-6.104-2.389c-3.651-3.373-3.877-9.066-0.504-12.719
			l24.352-26.359l-19.574-10.223c-4.406-2.301-6.112-7.736-3.812-12.143c2.301-4.406,7.739-6.113,12.144-3.812l30,15.668
			c2.484,1.297,4.222,3.678,4.701,6.438c0.479,2.762-0.355,5.588-2.257,7.646l-32.333,35
			C93.864,180.125,91.448,181.098,89.024,181.098z M80.518,137.475c-5.81-1.863-9.964-6.48-11.5-11.945
			c-1.713,0.838-3.178,2.215-4.097,4.051c-4.707,9.412-18.796,35.555-27.357,43.383c-3.668,3.354-3.923,9.047-0.569,12.715
			c1.775,1.941,4.206,2.928,6.645,2.928c2.168,0,4.344-0.779,6.071-2.357c12.535-11.463,29.425-44.85,31.31-48.617
			c0.002-0.006,0.004-0.01,0.006-0.014C80.857,137.568,80.687,137.529,80.518,137.475z M160.904,29.662
			c-4.289-2.51-9.803-1.066-12.312,3.225c-8.721,14.91-12.7,21.716-46.047,17.289c-35.29-4.686-54.82,19.707-60.213,33.26
			c-1.838,4.618,0.406,9.878,5.024,11.716c1.098,0.438,2.229,0.645,3.342,0.645c3.568,0,6.937-2.132,8.338-5.652
			c0.358-0.867,7.491-17.567,26.252-21.656L70.59,114.291c-2.953,9.203,2.114,19.057,11.316,22.01
			c1.778,0.57,3.579,0.842,5.351,0.842c2.77,0,5.465-0.662,7.88-1.881l-8.072-4.217c-5.091-2.658-7.062-8.939-4.403-14.029
			c2.659-5.092,8.941-7.062,14.03-4.404l9.588,5.008l13.911-43.353c0.52-1.618,0.777-3.256,0.821-4.874
			c25.236-0.539,33.677-11.277,43.117-27.418C166.639,37.683,165.195,32.171,160.904,29.662z"/>
	</g>
</g>
<g id="Layer_7" display="none">
	<g display="inline">
		<linearGradient id="SVGID_11_" gradientUnits="userSpaceOnUse" x1="18.4658" y1="72.082" x2="55.6895" y2="72.082">
			<stop  offset="0" style="stop-color:#A0FE9A"/>
			<stop  offset="1" style="stop-color:#43DCA4"/>
		</linearGradient>
		<path fill="url(#SVGID_11_)" d="M55.423,68.889c0.791,4.688-0.164,9.707-3.084,13.938l-0.25,0.364
			c-2.932,4.05-7.224,6.571-11.83,7.358c-4.593,0.786-9.503-0.157-13.683-3.033l-0.359-0.248l-0.002,0.003
			c-4.117-2.947-6.686-7.363-7.483-12.105c-0.79-4.692,0.163-9.714,3.078-13.948c0.228-0.33,0.037-0.07,0.17-0.256l0.006,0.004
			c2.953-4.125,7.358-6.616,12.037-7.372c4.651-0.752,9.594,0.222,13.653,3.024c0.115,0.079,0.198,0.137,0.246,0.172
			C52.05,59.735,54.626,64.15,55.423,68.889L55.423,68.889z"/>
		<linearGradient id="SVGID_12_" gradientUnits="userSpaceOnUse" x1="19.7993" y1="100" x2="181.5342" y2="100">
			<stop  offset="0" style="stop-color:#68FE9A"/>
			<stop  offset="1" style="stop-color:#43DCA4"/>
		</linearGradient>
		<path fill="url(#SVGID_12_)" d="M150.766,81.43l-25-18.167l-10.334,5l42.265,28.488c1.732,3.218,2.148,5.61,0.931,7.342
			c-0.107,0.151-0.224,0.293-0.348,0.425c-2.243,2.667-5.043,4.842-8.217,6.342c-3.151,1.488-6.659,2.321-10.347,2.321
			c-4.615,0-8.939-1.299-12.628-3.553c-2.07-1.265-3.937-2.835-5.539-4.649c-2.007,2.284-4.365,4.086-6.93,5.406
			c-3.513,1.81-7.413,2.712-11.314,2.711c-3.891-0.002-7.789-0.906-11.306-2.712c-2.737-1.405-5.241-3.346-7.332-5.818
			c-1.3,1.242-2.744,2.355-4.294,3.326c-4.05,2.536-8.844,4.104-13.627,4.396c-4.911,0.299-9.861-0.735-14.087-3.426
			c-2.546-1.62-4.805-3.835-6.605-6.71c-0.768-1.228-0.753-2.722-0.09-3.901l0,0c2.079-3.687,5.913-9.42,9.739-15.144
			c3.568-5.338,5.132-6.669,7.114-10.094c0.117-0.201,0.249-0.388,0.394-0.559c1.801-2.382,3.625-4.288,5.463-5.768
			c1.919-1.545,3.875-2.645,5.857-3.35c11.685-5.635,42.978-16.792,43.077-16.836c0.074-0.032,0.148-0.062,0.223-0.089
			c4.784-2.106,10.029-2.485,14.92-1.356c4.938,1.138,6.765,3.371,12.956,7.775l26.42,20.516c0.158,0.145,0.3,0.3,0.428,0.464
			c2.814,3.367,3.698,3.366,3.638,6.567c-1.278,3.701-1.021,3.225-4.382,6.095c-0.122,0.104-0.248,0.199-0.379,0.285l0.001,0.002
			c-3.709,1.751-4.774,1.503-8.75,1C158.834,87.276,155.444,85.051,150.766,81.43L150.766,81.43z M172.305,148.2
			c1.867-0.443,3.738,0.712,4.181,2.578c0.443,1.867-0.713,3.739-2.579,4.181c-0.826,0.196-1.687,0.347-2.574,0.451
			c-0.885,0.103-1.751,0.154-2.595,0.154c-4.608,0-8.966-1.417-12.523-3.872c-1.688-1.166-3.194-2.563-4.461-4.154
			c-1.268,1.591-2.774,2.988-4.462,4.154c-3.558,2.455-7.915,3.872-12.524,3.872c-4.604,0-8.96-1.416-12.518-3.869
			c-1.688-1.163-3.194-2.561-4.462-4.151c-1.267,1.591-2.774,2.988-4.462,4.151c-3.559,2.453-7.913,3.869-12.519,3.869
			c-4.608,0-8.966-1.417-12.524-3.872c-1.688-1.166-3.193-2.563-4.461-4.154c-1.267,1.591-2.773,2.988-4.46,4.154
			c-3.559,2.455-7.916,3.872-12.524,3.872c-4.605,0-8.96-1.416-12.519-3.869c-1.688-1.163-3.195-2.561-4.462-4.151
			c-1.269,1.591-2.774,2.988-4.463,4.151c-3.558,2.454-7.913,3.869-12.518,3.869c-0.87,0-1.757-0.054-2.652-0.16
			c-0.835-0.1-1.707-0.26-2.612-0.478c-1.858-0.45-3.002-2.322-2.553-4.182c0.451-1.858,2.322-3.002,4.183-2.552
			c0.546,0.132,1.146,0.237,1.798,0.315c0.591,0.069,1.204,0.104,1.837,0.104c3.188,0,6.172-0.958,8.581-2.619
			c2.369-1.634,4.191-3.951,5.101-6.7c0.334-1.01,1.125-1.854,2.213-2.212c1.822-0.601,3.785,0.391,4.385,2.212
			c0.909,2.749,2.73,5.066,5.101,6.7c2.408,1.661,5.393,2.619,8.581,2.619c3.189,0,6.177-0.959,8.587-2.622
			c2.37-1.636,4.191-3.956,5.1-6.709c0.333-1.011,1.124-1.855,2.213-2.213c1.821-0.6,3.785,0.392,4.384,2.213
			c0.908,2.753,2.729,5.073,5.1,6.709c2.409,1.663,5.396,2.622,8.586,2.622c3.188,0,6.173-0.958,8.581-2.619
			c2.37-1.634,4.191-3.951,5.101-6.7c0.333-1.01,1.125-1.854,2.213-2.212c1.821-0.601,3.785,0.391,4.385,2.212
			c0.909,2.749,2.73,5.066,5.101,6.7c2.408,1.661,5.393,2.619,8.58,2.619c3.191,0,6.178-0.959,8.588-2.622
			c2.369-1.636,4.19-3.956,5.099-6.709c0.334-1.011,1.126-1.855,2.213-2.213c1.822-0.6,3.785,0.392,4.385,2.213
			c0.908,2.753,2.729,5.073,5.1,6.709c2.41,1.663,5.396,2.622,8.587,2.622c0.629,0,1.233-0.033,1.808-0.1
			C171.115,148.446,171.703,148.343,172.305,148.2L172.305,148.2z M21.486,135.047c-1.643-0.982-2.177-3.11-1.195-4.752
			c0.982-1.642,3.109-2.177,4.751-1.194c1.173,0.704,2.432,1.242,3.735,1.6c1.292,0.355,2.672,0.538,4.1,0.538
			c3.188,0,6.172-0.958,8.581-2.619c2.37-1.634,4.191-3.952,5.102-6.701c0.6-1.821,2.562-2.812,4.384-2.212
			c1.088,0.357,1.88,1.202,2.213,2.212c0.909,2.749,2.731,5.067,5.101,6.701c2.408,1.661,5.394,2.619,8.581,2.619
			c3.19,0,6.177-0.96,8.587-2.623c2.37-1.636,4.191-3.956,5.1-6.709c0.6-1.821,2.563-2.812,4.385-2.212
			c1.087,0.357,1.88,1.202,2.213,2.212c0.907,2.753,2.729,5.073,5.099,6.709c2.41,1.663,5.396,2.623,8.586,2.623
			c3.188,0,6.173-0.958,8.581-2.619c2.37-1.634,4.191-3.952,5.102-6.701c0.599-1.821,2.562-2.812,4.384-2.212
			c1.088,0.357,1.88,1.202,2.213,2.212c0.909,2.749,2.731,5.067,5.101,6.701c2.408,1.661,5.394,2.619,8.581,2.619
			c3.19,0,6.177-0.96,8.587-2.622c2.369-1.637,4.191-3.957,5.1-6.71c0.6-1.821,2.562-2.812,4.384-2.212
			c1.089,0.357,1.88,1.202,2.214,2.212c0.907,2.752,2.729,5.073,5.099,6.709c2.41,1.663,5.396,2.623,8.587,2.623
			c1.367,0,2.703-0.173,3.97-0.509c1.29-0.343,2.517-0.844,3.642-1.493c1.657-0.953,3.772-0.381,4.725,1.276
			c0.952,1.656,0.381,3.771-1.275,4.724c-1.682,0.97-3.474,1.708-5.326,2.199c-1.875,0.497-3.805,0.753-5.734,0.753
			c-4.608,0-8.966-1.417-12.523-3.872c-1.688-1.165-3.194-2.563-4.461-4.154c-1.268,1.591-2.773,2.989-4.462,4.154
			c-3.558,2.455-7.915,3.872-12.523,3.872c-4.605,0-8.96-1.415-12.519-3.868c-1.688-1.164-3.194-2.562-4.461-4.152
			c-1.268,1.591-2.775,2.988-4.463,4.152c-3.558,2.453-7.913,3.868-12.519,3.868c-4.608,0-8.965-1.417-12.524-3.872
			c-1.687-1.165-3.193-2.563-4.461-4.154c-1.267,1.591-2.772,2.989-4.46,4.154c-3.559,2.455-7.916,3.872-12.523,3.872
			c-4.605,0-8.961-1.415-12.519-3.868c-1.688-1.164-3.195-2.562-4.463-4.152c-1.268,1.591-2.774,2.988-4.462,4.152
			c-3.558,2.453-7.913,3.868-12.519,3.868c-1.98,0-3.974-0.275-5.919-0.81C25.024,136.849,23.18,136.064,21.486,135.047
			L21.486,135.047z"/>
	</g>
</g>
<g id="Layer_8" display="none">
	<g display="inline">
		<linearGradient id="SVGID_13_" gradientUnits="userSpaceOnUse" x1="82.7583" y1="39.3057" x2="117.4102" y2="39.3057">
			<stop  offset="0" style="stop-color:#A0FE9A"/>
			<stop  offset="1" style="stop-color:#43DCA4"/>
		</linearGradient>
		<path fill="url(#SVGID_13_)" d="M100.083,22.159c4.763,0,9.085,1.914,12.221,5.007c3.155,3.112,5.106,7.403,5.106,12.137
			c0,4.736-1.951,9.029-5.105,12.142c-3.136,3.095-7.459,5.008-12.222,5.008c-4.765,0-9.085-1.913-12.22-5.008
			c-3.154-3.112-5.104-7.405-5.104-12.142c0-4.733,1.951-9.025,5.105-12.137C90.999,24.072,95.319,22.159,100.083,22.159
			L100.083,22.159z"/>
		<path fill="none" d="M153.987,59.365c-0.05,0.05-0.1,0.08-0.16,0.13c-5.399,4.74-11.89,8.02-18.08,8.67
			c-5.06,0.53-9.939,1.24-13.76-2.58c-0.18-0.18-0.36-0.36-0.55-0.53c-3.37-2.94-12.521-4.42-21.44-4.42
			c-8.91,0-18.06,1.48-21.43,4.42c-0.2,0.17-0.38,0.35-0.55,0.53c-3.82,3.82-8.7,3.11-13.771,2.58c-6.18-0.65-12.67-3.93-18.08-8.67
			c-0.05-0.05-0.1-0.08-0.159-0.13c0.75-26.23,24.67-47.37,53.989-47.37C129.317,11.995,153.237,33.135,153.987,59.365z"/>
		<linearGradient id="SVGID_14_" gradientUnits="userSpaceOnUse" x1="34.0244" y1="100" x2="165.9756" y2="100">
			<stop  offset="0" style="stop-color:#68FE9A"/>
			<stop  offset="1" style="stop-color:#43DCA4"/>
		</linearGradient>
		<path fill="url(#SVGID_14_)" d="M165.407,63.055c-0.38-1.05-0.96-2.02-1.68-2.84c-0.79-0.9-1.771-1.62-2.87-2.06
			c-0.62-0.25-1.271-0.4-1.92-0.46c-1.69-28.22-27.47-50.7-58.94-50.7c-31.46,0-57.25,22.48-58.93,50.7
			c-0.66,0.06-1.3,0.21-1.92,0.46c-1.11,0.44-2.08,1.16-2.87,2.06c-0.72,0.82-1.3,1.79-1.68,2.84c-1.021,2.77-0.79,6.19,1.59,8.86
			v0.02c7.149,7.94,19.56,10.681,28.27,13.24c5.521,1.63,11.08,1.62,16.46-0.69v37.431l-3.83,57.439v0.45
			c0.181,3.47,0.95,6.91,2.25,9.46c1.58,2.46,2.061,2.86,4.44,3.74c3,0.01,5.53-0.68,7.7-2.49c2.04-1.689,3.52-4.21,4.53-7.899
			l0.09-0.46l3.899-27.36l3.91,27.36l0.09,0.46c1,3.689,2.49,6.21,4.521,7.899c2.18,1.811,4.71,2.5,7.71,2.49
			c2.109-0.17,2.85-0.29,4.93-2.58c1.66-1.84,1.58-8.15,1.76-11.62v-0.45l-3.83-57.439V83.484c5.37,2.311,10.94,2.32,16.46,0.69
			c8.711-2.56,21.12-4.3,28.261-12.24v-0.02C166.197,69.245,166.417,65.825,165.407,63.055z M153.827,59.495
			c-5.399,4.74-11.89,8.02-18.08,8.67c-5.06,0.53-9.939,1.24-13.76-2.58c-0.18-0.18-0.36-0.36-0.55-0.53
			c-3.37-2.94-12.521-4.42-21.44-4.42c-8.91,0-18.06,1.48-21.43,4.42c-0.2,0.17-0.38,0.35-0.55,0.53
			c-3.82,3.82-8.7,3.11-13.771,2.58c-6.18-0.65-12.67-3.93-18.08-8.67c-0.05-0.05-0.1-0.08-0.159-0.13
			c0.75-26.23,24.67-47.37,53.989-47.37c29.32,0,53.24,21.14,53.99,47.37C153.938,59.415,153.888,59.445,153.827,59.495z"/>
	</g>
</g>
<g id="Layer_9" display="none">
	<g display="inline">
		<linearGradient id="SVGID_15_" gradientUnits="userSpaceOnUse" x1="36.1704" y1="100" x2="156.0469" y2="100">
			<stop  offset="0" style="stop-color:#68FE9A"/>
			<stop  offset="1" style="stop-color:#43DCA4"/>
		</linearGradient>
		<path fill="url(#SVGID_15_)" d="M154.906,123.625l-32.918,63.15c-1.797,3.447-5.309,5.421-8.945,5.421
			c-1.568,0-3.16-0.367-4.648-1.144c-4.936-2.572-6.85-8.657-4.277-13.593l22.695-43.541L92.75,142.08
			c1.654-1.39,3.085-3.1,4.174-5.116l10.299-19.075l36.398-8.721c3.842-0.921,7.863,0.486,10.293,3.6
			C156.344,115.879,156.73,120.123,154.906,123.625z M98.021,54.01c2.928-5.425,8.292-8.688,14.008-9.185L63.539,9.719
			c-4.509-3.263-10.808-2.256-14.072,2.253c-3.264,4.508-2.255,10.808,2.253,14.072l44.146,31.959L98.021,54.01z M95.046,59.54
			L79.983,48.936H46.247c-5.564,0-10.076,4.512-10.076,10.077S40.682,69.09,46.247,69.09H89.89L95.046,59.54z M95.59,135.956
			l34.482-63.864c4.627-8.571,1.432-19.269-7.139-23.896c-8.57-4.628-19.268-1.43-23.894,7.14l-34.483,63.864
			c-4.628,8.57-1.431,19.269,7.14,23.896c2.664,1.438,5.532,2.121,8.362,2.121C86.329,145.216,92.403,141.862,95.59,135.956z"/>
		<linearGradient id="SVGID_16_" gradientUnits="userSpaceOnUse" x1="125.5254" y1="36.79" x2="163.8301" y2="36.79">
			<stop  offset="0" style="stop-color:#A0FE9A"/>
			<stop  offset="1" style="stop-color:#43DCA4"/>
		</linearGradient>
		<circle fill="url(#SVGID_16_)" cx="144.678" cy="36.79" r="19.152"/>
	</g>
</g>
<g id="Layer_10" display="none">
	<g display="inline">
		<linearGradient id="SVGID_17_" gradientUnits="userSpaceOnUse" x1="83.5176" y1="24.2852" x2="116.4814" y2="24.2852">
			<stop  offset="0" style="stop-color:#A0FE9A"/>
			<stop  offset="1" style="stop-color:#43DCA4"/>
		</linearGradient>
		<circle fill="url(#SVGID_17_)" cx="100" cy="24.285" r="16.482"/>
		<linearGradient id="SVGID_18_" gradientUnits="userSpaceOnUse" x1="30.0918" y1="110.1699" x2="169.9082" y2="110.1699">
			<stop  offset="0" style="stop-color:#68FE9A"/>
			<stop  offset="1" style="stop-color:#43DCA4"/>
		</linearGradient>
		<path fill="url(#SVGID_18_)" d="M87.954,147.809l-4.734,5.021c-3.143,3.334-2.987,8.584,0.346,11.725
			c3.332,3.143,8.583,2.988,11.725-0.346l6.711-7.119L87.954,147.809z M164.478,33.17h-16.955c0.072,0.647,0.029-0.074,0.492,10.86
			h11.033v148.167h10.86V38.6C169.908,35.601,167.477,33.17,164.478,33.17z M35.522,33.17L35.522,33.17
			c-2.999,0-5.431,2.431-5.431,5.431v153.597h10.86V44.03h11.033c0.463-10.94,0.42-10.212,0.492-10.86H35.522L35.522,33.17z
			 M141.948,34.252c-0.149-3.523-3.138-6.249-6.642-6.103c-3.52,0.149-6.253,3.123-6.104,6.643l0.66,15.602l-20.558,1.494h-18.61
			l-20.558-1.494l0.659-15.602c0.153-3.604-2.72-6.648-6.384-6.648c-3.392,0-6.217,2.684-6.361,6.109l-0.926,21.892
			c-0.147,3.487,2.534,6.445,6.02,6.639l18.464,1.022c0,4.112,0,36.331,0,41.515c-5.711,7.684-6.814,9.168-12.378,16.654
			c-2.84,3.822-1.882,9.246,2.085,11.867l35.832,23.676c3.825,2.527,8.969,1.471,11.492-2.348c2.525-3.822,1.475-8.967-2.348-11.492
			l-28.519-18.844c4.336-5.834,1.673-2.252,10.123-13.621h5.466l5.256,13.803l-6.021,6.535l14.047,9.281l7.609-8.221
			c2.181-2.314,2.847-5.67,1.715-8.641l-7.751-20.355c0-4.907,0-35.459,0-39.801l18.636-1.032c3.484-0.193,6.168-3.151,6.02-6.639
			L141.948,34.252z M86.843,44.03c-4.297-2.32-6.509-5.43-7.563-8.556c-1.285-0.349-1.774-1.137-2.552-2.304h-0.456
			c0.135,1.217,0.104,0.907-0.316,10.86h6.242L86.843,44.03z M117.804,44.031h6.241c-0.421-9.953-0.451-9.643-0.316-10.86h-0.456
			c-0.777,1.167-1.267,1.955-2.552,2.304c-1.055,3.126-3.267,6.235-7.563,8.556L117.804,44.031z"/>
	</g>
</g>
<g id="Layer_11" display="none">
	<g display="inline">
		<linearGradient id="SVGID_19_" gradientUnits="userSpaceOnUse" x1="148.4951" y1="63.5576" x2="182.0195" y2="63.5576">
			<stop  offset="0" style="stop-color:#A0FE9A"/>
			<stop  offset="1" style="stop-color:#43DCA4"/>
		</linearGradient>
		<path fill="url(#SVGID_19_)" d="M165.258,80.315c9.257,0,16.762-7.492,16.762-16.76c0-9.248-7.492-16.756-16.762-16.756
			s-16.763,7.502-16.763,16.756C148.495,72.819,156.001,80.315,165.258,80.315z"/>
		<linearGradient id="SVGID_20_" gradientUnits="userSpaceOnUse" x1="5.1543" y1="105.3828" x2="194.8457" y2="105.3828">
			<stop  offset="0" style="stop-color:#68FE9A"/>
			<stop  offset="1" style="stop-color:#43DCA4"/>
		</linearGradient>
		<path fill="url(#SVGID_20_)" d="M171.985,127.131c0.829,1.126,1.155,2.518,0.918,3.901l-3.01,16.497
			c-0.36,2.004-1.838,3.514-3.673,4.009c-0.699,0.19-1.443,0.239-2.211,0.104c-2.757-0.489-4.597-3.121-4.113-5.876l2.081-11.249
			l-118.122-14.72l-0.809,28.438c-0.05,2.303-1.627,4.218-3.744,4.79c-0.457,0.123-0.94,0.174-1.439,0.175
			c-2.792-0.064-5.02-2.376-4.954-5.189l1.322-51.524c0.055-2.805,2.352-5.017,5.182-4.967c2.799,0.062,5.021,2.376,4.951,5.179
			l-0.281,12.905l124.456,15.483C169.916,125.281,171.162,126.016,171.985,127.131z M87.795,109.009l58.5-8.83
			c6.826-1.03,11.525-7.399,10.495-14.226c-1.031-6.826-7.397-11.52-14.226-10.495l-58.5,8.83
			c-6.826,1.03-11.525,7.399-10.495,14.226c0.936,6.194,6.266,10.637,12.345,10.637C86.534,109.15,87.163,109.104,87.795,109.009z
			 M82.964,83.2l2.475-0.374L64.705,60.02c-2.423-2.665-6.398-3.23-9.469-1.35l-46.5,28.5c-3.532,2.164-4.64,6.782-2.476,10.313
			c2.164,3.532,6.781,4.64,10.313,2.476l41.207-25.256l14.947,16.441C74.478,87.046,78.233,83.914,82.964,83.2z M191.771,72.059
			c-3.345-2.445-8.037-1.718-10.48,1.628L165.09,95.85l-7.105-5.238c-0.856,5.261-4.84,9.71-10.368,10.876l-0.121,0.025
			l14.754,10.88c1.415,1.043,3.145,1.552,4.886,1.451c0.233-0.014,0.468-0.038,0.702-0.074c1.971-0.302,3.74-1.377,4.918-2.987
			l20.645-28.243C195.844,79.194,195.115,74.503,191.771,72.059z"/>
	</g>
</g>
<g id="Layer_12" display="none">
	<g display="inline">
		<linearGradient id="SVGID_21_" gradientUnits="userSpaceOnUse" x1="54.123" y1="169.125" x2="92.5649" y2="169.125">
			<stop  offset="0" style="stop-color:#A0FE9A"/>
			<stop  offset="1" style="stop-color:#43DCA4"/>
		</linearGradient>
		<path fill="url(#SVGID_21_)" d="M66.156,151.305L66.156,151.305c4.915-1.985,10.172-1.789,14.699,0.133
			c4.524,1.92,8.317,5.571,10.309,10.497v0.001c1.985,4.914,1.789,10.172-0.133,14.7c-1.92,4.523-5.571,8.317-10.498,10.309
			c-4.913,1.985-10.172,1.789-14.7-0.133c-4.524-1.921-8.317-5.572-10.309-10.498c-1.984-4.915-1.789-10.173,0.134-14.701
			C57.578,157.089,61.229,153.295,66.156,151.305L66.156,151.305z"/>
		<linearGradient id="SVGID_22_" gradientUnits="userSpaceOnUse" x1="36.6846" y1="100" x2="163.3154" y2="100">
			<stop  offset="0" style="stop-color:#68FE9A"/>
			<stop  offset="1" style="stop-color:#43DCA4"/>
		</linearGradient>
		<path fill="url(#SVGID_22_)" d="M148.15,43.63c2.17,5.366,4.357,10.784,6.557,16.23l2.334,5.775
			c0.613,1.519,0.344,0.839,1.252,3.075c3.881,9.549,5.605,13.79,4.848,18.367c-0.613,3.717-2.658,6.509-6.336,11.529
			c-1.783,2.433-3.988,5.44-6.525,9.222l-13.477,20.087l18.24,45.147c1.246,3.082,1.115,6.396-0.096,9.249
			c-1.209,2.851-3.51,5.245-6.604,6.495l-6.229,2.517l0,0c-3.076,1.242-6.385,1.114-9.232-0.095
			c-2.861-1.214-5.262-3.513-6.51-6.604l-0.002-0.002l-18.232-45.127l-23.627-5.081c-4.523-0.974-8.163-1.601-11.105-2.107
			c-6.131-1.055-9.54-1.643-12.562-3.888c-3.729-2.771-5.437-7.021-9.281-16.596c-0.391-0.971-0.804-2.001-1.244-3.093
			l-4.466-11.051l-4.426-10.955C31.21,61.438,38.549,39.621,53.452,25.331c5.747-5.51,12.622-9.882,20.045-12.881
			c7.402-2.991,15.381-4.618,23.354-4.646C117.496,7.731,137.93,18.332,148.15,43.63L148.15,43.63z M149.658,95.375L76.3,125.014
			c2.685,0.468,5.893,1.049,9.804,1.89l24.994,5.376l18.582-7.507l14.23-21.21C146.172,100.19,148.066,97.557,149.658,95.375
			L149.658,95.375z"/>
	</g>
</g>
<g id="Layer_13" display="none">
	<linearGradient id="SVGID_23_" gradientUnits="userSpaceOnUse" x1="20.7246" y1="103.2002" x2="47.1787" y2="103.2002">
		<stop  offset="0" style="stop-color:#A0FE9A"/>
		<stop  offset="1" style="stop-color:#43DCA4"/>
	</linearGradient>
	<path display="inline" fill="url(#SVGID_23_)" d="M33.951,89.973c3.652,0,6.959,1.481,9.354,3.875
		c2.393,2.394,3.874,5.7,3.874,9.353c0,3.651-1.481,6.958-3.874,9.353c-2.395,2.394-5.701,3.874-9.354,3.874
		c-3.651,0-6.958-1.48-9.352-3.874c-2.395-2.395-3.875-5.701-3.875-9.353c0-3.653,1.48-6.959,3.875-9.353
		C26.992,91.455,30.299,89.973,33.951,89.973z"/>
	<linearGradient id="SVGID_24_" gradientUnits="userSpaceOnUse" x1="105.3398" y1="26.0449" x2="141.4727" y2="26.0449">
		<stop  offset="0" style="stop-color:#A0FE9A"/>
		<stop  offset="1" style="stop-color:#43DCA4"/>
	</linearGradient>
	<path display="inline" fill="url(#SVGID_24_)" d="M130.29,42.918c-2.166,0.913-4.462,1.37-6.885,1.37v-0.015
		c-2.445,0-4.741-0.451-6.884-1.354c-2.152-0.906-4.1-2.231-5.841-3.972l0.007-0.007c-1.763-1.764-3.095-3.733-3.994-5.906
		c-0.902-2.181-1.354-4.511-1.354-6.988c0-2.477,0.451-4.807,1.354-6.988c0.898-2.169,2.228-4.136,3.987-5.898l0.007-0.007
		l0.008-0.008c1.754-1.751,3.695-3.075,5.824-3.972c2.167-0.913,4.463-1.369,6.886-1.369c2.424,0,4.72,0.456,6.887,1.369
		c2.129,0.897,4.071,2.221,5.824,3.972l0.008,0.008l0.007,0.007c1.761,1.763,3.09,3.729,3.988,5.898
		c0.902,2.181,1.354,4.511,1.354,6.988c0,2.478-0.451,4.807-1.354,6.988c-0.899,2.173-2.231,4.142-3.995,5.906l0.007,0.007
		C134.391,40.688,132.443,42.012,130.29,42.918L130.29,42.918z"/>
	<linearGradient id="SVGID_25_" gradientUnits="userSpaceOnUse" x1="9.4297" y1="111.3145" x2="187.8271" y2="111.3145">
		<stop  offset="0" style="stop-color:#68FE9A"/>
		<stop  offset="1" style="stop-color:#43DCA4"/>
	</linearGradient>
	<path display="inline" fill="url(#SVGID_25_)" d="M180.89,89.05l-13-24.67c-0.87-1.65-2.229-2.99-3.89-3.83l-22.83-11.58
		c-13.97-7.83-26.11,0.55-30.88,8.14c-0.13,0.21-0.25,0.42-0.36,0.63L98.15,80.33l-22.97,6.6L54.16,65.65
		c6.07-7.39,6.43-15.18,3.51-21.98c-1.36-3.15-3.46-6.07-6.04-8.59c-2.51-2.45-5.49-4.54-8.67-6.11
		c-9.21-4.55-20.29-4.89-27.53,2.11c-7.29,7.05-7.39,18.04-3.23,27.33c1.45,3.24,3.42,6.29,5.78,8.87c2.41,2.65,5.25,4.85,8.38,6.34
		c6.74,3.2,14.6,3.14,22.27-2.67l19.99,20.24c-1.33,2.09-1.78,4.73-1.04,7.3c1.13,3.939,4.73,6.51,8.64,6.51
		c0.83,0,1.66-0.11,2.49-0.35l28.12-8.09c2.37-0.68,4.35-2.3,5.49-4.48l3.81-7.3l4.51,27.85c1.4,8.59,8.82,14.71,17.261,14.71
		c0.93,0,1.869-0.08,2.819-0.229c9.54-1.551,16.021-10.53,14.471-20.07L149.76,73.5l3.54,1.8l11.67,22.14
		c2.32,4.4,7.761,6.09,12.16,3.77C181.53,98.89,183.21,93.45,180.89,89.05z M20.75,36.6c0.46-0.45,0.96-0.85,1.48-1.2l0.02,3.72
		l-3.5,0.07C19.28,38.25,19.94,37.38,20.75,36.6z M17.88,41.13l4.39-0.1l0.05,8.31l-4.94,0.11C16.88,46.54,16.99,43.66,17.88,41.13z
		 M21.63,59.59c-0.94-1.35-1.76-2.8-2.44-4.31c-0.57-1.28-1.04-2.6-1.39-3.92l4.53-0.1l0.06,8.31L21.63,59.59z M24.13,34.37
		c2.49-1.06,5.37-1.27,8.31-0.82l0.04,5.35l-8.31,0.18L24.13,34.37z M24.18,40.99l8.31-0.18l0.06,8.31l-8.32,0.18L24.18,40.99z
		 M24.25,51.22l8.31-0.18l0.05,8.31l-8.31,0.18L24.25,51.22z M29.63,66.68c-1.92-0.91-3.71-2.23-5.31-3.85l-0.01-1.39l8.32-0.18
		l0.04,6.46C31.62,67.5,30.6,67.15,29.63,66.68z M34.36,33.93c1.76,0.43,3.52,1.08,5.21,1.91c1.08,0.54,2.13,1.15,3.13,1.82v1.02
		l-8.31,0.17L34.36,33.93z M34.4,40.77l8.32-0.18l0.05,8.31l-8.31,0.18L34.4,40.77z M34.47,51l8.31-0.18l0.06,8.31l-8.31,0.18
		L34.47,51z M34.58,67.97l-0.04-6.75l8.31-0.18l0.03,4.57C40.04,67.42,37.23,68.12,34.58,67.97z M44.63,40.55l1.59-0.04l0.07,0.06
		c1.86,1.82,3.36,3.9,4.32,6.14c0.29,0.65,0.52,1.32,0.69,2.01l-6.62,0.14L44.63,40.55z M44.7,50.77l6.94-0.15
		c0.26,2.68-0.36,5.52-2.14,8.37l-4.75,0.1L44.7,50.77z M44.76,61l3.34-0.07c-0.56,0.68-1.18,1.35-1.89,2.02
		c-0.47,0.46-0.95,0.88-1.42,1.27L44.76,61z M132.456,127.438l-17.026,17.924l-1.76,42.97c-0.2,4.84-4.18,8.63-8.98,8.63h-0.38
		c-4.97-0.21-8.83-4.399-8.62-9.359l1.9-46.36c0.09-2.18,0.96-4.25,2.46-5.83l20.107-21.165
		C121.536,120.751,126.397,125.705,132.456,127.438z M184.342,192.137c-1.64,1.28-3.579,1.89-5.51,1.89
		c-2.689,0-5.34-1.199-7.12-3.479l-27.68-35.68c-0.84-1.091-1.42-2.351-1.7-3.7l-4.747-23.018c0.225,0.009,0.447,0.03,0.674,0.03
		c0.93,0,1.872-0.074,2.819-0.228c5.796-0.939,10.448-4.631,12.872-9.518l5.592,27.042l26.4,34.03
		C188.982,183.437,188.272,189.097,184.342,192.137z"/>
</g>
<g id="Layer_14" display="none">
	<line id="_319393376" display="inline" fill="none" x1="181.218" y1="178.05" x2="181.218" y2="178.049"/>
	<path display="inline" fill="none" d="M65.665,129.17L65.665,129.17z"/>
	<path display="inline" fill="none" d="M74.183,129.17L74.183,129.17z"/>
	<path display="inline" fill="none" d="M82.7,129.17L82.7,129.17z"/>
	<path display="inline" fill="none" d="M91.217,129.17L91.217,129.17z"/>
	<linearGradient id="SVGID_26_" gradientUnits="userSpaceOnUse" x1="29.4048" y1="157.6836" x2="71.4819" y2="157.6836">
		<stop  offset="0" style="stop-color:#A0FE9A"/>
		<stop  offset="1" style="stop-color:#43DCA4"/>
	</linearGradient>
	<path display="inline" fill="url(#SVGID_26_)" d="M69.553,129.785c1.153,1.604,1.929,3.665,1.929,5.866
		c0,0.713-0.09,1.47-0.285,2.265l-9.145,37.309c0.059,0.224,0.11,0.448,0.154,0.673c0.133,0.686,0.2,1.362,0.2,2.021
		c0,3.165-1.391,6.021-3.639,8.08c-2.158,1.977-5.103,3.199-8.323,3.199c-3.221,0-6.166-1.223-8.323-3.199
		c-2.249-2.06-3.639-4.915-3.639-8.08c0-0.679,0.068-1.367,0.204-2.056c0.014-0.075,0.03-0.149,0.046-0.223l-9.047-37.738
		c-0.191-0.799-0.28-1.546-0.28-2.238c0-2.209,0.777-4.276,1.932-5.883c1.237-1.722,2.996-2.976,4.823-3.414
		c0.537-0.129,1.042-0.196,1.506-0.196c1.596,0,3.044,0.562,4.264,1.551c1.219-0.989,2.663-1.551,4.253-1.551
		c1.591,0,3.038,0.563,4.258,1.556c1.22-0.992,2.666-1.556,4.259-1.556c1.591,0,3.038,0.563,4.258,1.556
		c1.22-0.992,2.666-1.556,4.259-1.556c0.485,0,1,0.068,1.535,0.199C66.566,126.814,68.318,128.069,69.553,129.785L69.553,129.785z
		 M41.955,129.483c-0.601,0.065-1.023,0.723-0.942,1.465l5.004,45.649c0.082,0.744,0.636,1.292,1.237,1.227
		c0.601-0.065,1.023-0.722,0.941-1.465l-5.004-45.649C43.11,129.966,42.556,129.417,41.955,129.483z M57.603,130.71l-5.004,45.649
		c-0.082,0.743,0.341,1.399,0.941,1.465c0.602,0.065,1.156-0.482,1.237-1.227l5.004-45.649c0.082-0.742-0.341-1.399-0.942-1.465
		C58.238,129.417,57.684,129.966,57.603,130.71z"/>
	<linearGradient id="SVGID_27_" gradientUnits="userSpaceOnUse" x1="10.0518" y1="99.9907" x2="189.9404" y2="99.9907">
		<stop  offset="0" style="stop-color:#68FE9A"/>
		<stop  offset="1" style="stop-color:#43DCA4"/>
	</linearGradient>
	<path display="inline" fill="url(#SVGID_27_)" d="M186.74,172.74l-35.21-36.46c-2.2-2.28-5.12-3.45-8.07-3.5
		c-1.69-0.03-3.39,0.31-4.96,1.02L96.17,89.97c14.39-15.42,15.67-31.8,9.59-45.94c-2.7-6.29-6.9-12.1-12.06-17.15
		c-5.09-4.97-11.13-9.2-17.6-12.4c-18.35-9.07-40.3-9.9-54.43,3.77C7.42,32.03,7.36,53.79,15.65,72.29
		c2.95,6.59,6.95,12.76,11.73,18.01c4.84,5.31,10.49,9.7,16.71,12.65c13.98,6.649,30.52,6.03,46.55-7.67l42.35,43.85
		c-0.771,1.55-1.17,3.23-1.2,4.93c-0.05,2.94,1.02,5.891,3.21,8.16l0.04,0.061h0.01l35.16,36.399c2.19,2.28,5.12,3.45,8.07,3.5h0.2
		c2.869,0,5.75-1.06,7.97-3.199c2.27-2.2,3.439-5.131,3.49-8.08v-0.23C189.94,177.8,188.87,174.95,186.74,172.74z M47.549,96.69
		c-5.27-2.5-10.119-6.279-14.31-10.89c-4.25-4.659-7.79-10.13-10.399-15.96c-7.09-15.81-7.301-34.15,4.33-45.39
		c11.529-11.16,30.029-10.18,45.729-2.43c5.761,2.85,11.13,6.61,15.649,11.02c4.44,4.35,8.051,9.33,10.351,14.69
		c5.241,12.18,3.6,26.54-10.521,40.081C74.229,101.391,59.649,102.441,47.549,96.69z"/>
	<g display="inline">
		<linearGradient id="SVGID_28_" gradientUnits="userSpaceOnUse" x1="82.3994" y1="96.2017" x2="83.1201" y2="96.2017">
			<stop  offset="0" style="stop-color:#68FE9A"/>
			<stop  offset="1" style="stop-color:#43DCA4"/>
		</linearGradient>
		<polygon fill="url(#SVGID_28_)" points="83.12,96.207 83.12,96.267 82.399,96.187 82.41,96.137 		"/>
		<linearGradient id="SVGID_29_" gradientUnits="userSpaceOnUse" x1="16.4893" y1="58.022" x2="102" y2="58.022">
			<stop  offset="0" style="stop-color:#68FE9A"/>
			<stop  offset="1" style="stop-color:#43DCA4"/>
		</linearGradient>
		<path fill="url(#SVGID_29_)" d="M101.729,51.927l0.13-1.49l0.141-1.49l-10.82-0.99l1.32-11.02l0.29,0.03l0.31-2.99l-0.25-0.03
			l0.2-1.65l-1.49-0.18l-1.479-0.18l-0.2,1.71l-12.391-1.28l1.471-11.95l-1.49-0.19h-0.021l0.08-0.86l-14.119-1.29l0.06-0.48
			l-1.49-0.17l-1.49-0.18l-0.069,0.55l-12.51-1.14l0.319-2.71l-1.49-0.18l-1.489-0.18l-0.33,2.79l-11.7-1.07l-0.14,1.49l-0.141,1.5
			l11.62,1.06l-1.13,9.48l-11.95-1.23l1.38-11.03l-1.489-0.19l-1.49-0.19l-1.391,11.1L20,26.417l-0.16,1.5l-0.15,1.49l8.431,0.87
			l-1.48,11.77l-9.74-0.89l-0.13,1.49l-0.14,1.49l9.64,0.88l-1.53,12.22l-7.97-0.73l-0.14,1.49l-0.141,1.5l7.881,0.72l-1.65,13.21
			l-0.84-0.09l-0.16,1.49l-0.15,1.49l15.99,1.659l-1.41,11.84l-2.22-0.229l-0.16,1.5l-0.149,1.49l2.17,0.229l-0.03,0.24l1.49,0.18
			l1.489,0.17l0.03-0.29l12.54,1.311l-0.91,7.689l1.49,0.17l1.49,0.181l0.92-7.73l12.32,1.271l-0.73,5.899l1.49,0.19l1.49,0.18
			l0.729-5.96l13.37,1.391l0.15-1.431l-0.721-0.08l0.011-0.05l0.71,0.07v0.06l0.77,0.09l1.49,0.181l1.6-13.42l9.62,1l0.16-1.501
			l0.15-1.489l-9.57-0.99l1.67-14l12.58,1.149l0.13-1.489h0.01l0.13-1.5l-12.489-1.14l1.46-12.23L101.729,51.927z M63.06,21.057
			l12.65,1.16l-1.21,9.84l-12.59-1.31L63.06,21.057z M61.55,33.737l12.58,1.3l-1.38,11.23l-12.551-1.15L61.55,33.737z M72.38,49.237
			l-1.51,12.22l-12.48-1.14l1.45-12.22L72.38,49.237z M47.55,19.637l12.52,1.15l-1.149,9.66l-12.51-1.3L47.55,19.637z M46.06,32.137
			l12.51,1.29l-1.359,11.42l-12.53-1.15L46.06,32.137z M44.319,46.667l12.53,1.15l-1.45,12.23l-12.54-1.15L44.319,46.667z
			 M31.109,30.587l11.96,1.24l-1.38,11.6l-12.05-1.1L31.109,30.587z M29.27,45.297l12.061,1.1l-1.46,12.22l-12.131-1.11
			L29.27,45.297z M37.92,74.997l-12.21-1.26l1.649-13.241l12.16,1.11L37.92,74.997z M51.67,91.427l-12.54-1.3l1.41-11.841
			l12.54,1.311L51.67,91.427z M53.43,76.616l-12.53-1.31l1.601-13.43l12.55,1.149L53.43,76.616z M66.979,93.026l-12.33-1.29
			l1.41-11.829l12.38,1.279L66.979,93.026z M68.81,78.207l-12.39-1.28l1.62-13.63l12.47,1.14L68.81,78.207z M82.58,94.646
			l-12.61-1.31l1.46-11.84L84,82.807L82.58,94.646z M86.02,65.866l-1.66,13.961L71.8,78.517l1.7-13.8l12.52,1.14V65.866z
			 M86.38,62.877l-12.51-1.14l1.5-12.221l12.47,1.14L86.38,62.877z M88.199,47.687l-12.46-1.14l1.381-11.2l12.399,1.28
			L88.199,47.687z"/>
	</g>
	<g display="inline">
		<line fill="none" x1="278.76" y1="74.88" x2="278.49" y2="74.85"/>
	</g>
	<g display="inline">
		<linearGradient id="SVGID_30_" gradientUnits="userSpaceOnUse" x1="268.2197" y1="135.6152" x2="268.9404" y2="135.6152">
			<stop  offset="0" style="stop-color:#68FE9A"/>
			<stop  offset="1" style="stop-color:#43DCA4"/>
		</linearGradient>
		<polygon fill="url(#SVGID_30_)" points="268.94,135.62 268.94,135.68 268.22,135.6 268.23,135.55 		"/>
	</g>
</g>
<g id="Layer_15" display="none">
	<g display="inline">
		<linearGradient id="SVGID_31_" gradientUnits="userSpaceOnUse" x1="8.959" y1="100" x2="97.1191" y2="100">
			<stop  offset="0" style="stop-color:#68FE9A"/>
			<stop  offset="1" style="stop-color:#43DCA4"/>
		</linearGradient>
		<path fill="url(#SVGID_31_)" d="M89.18,66.96c-0.09-0.1-0.19-0.19-0.3-0.28c-1.65-1.37-16.39-13.42-25.94-15.16l-0.76-0.14
			c-2.82-0.52-6.32-1.16-10.04-1.16c-11.18,0-19.45,5.76-25.3,17.6c-0.91,1.61-7.47,14.01-6.96,35.871
			c-1.19,0.659-2.2,1.63-2.92,2.84l-6.89,11.609c-1.05,1.771-1.37,3.83-0.9,5.811c0.48,2.03,1.72,3.74,3.5,4.79l33.68,19.99
			c1.16,0.689,2.49,1.05,3.84,1.05c2.73,0,5.3-1.471,6.71-3.851l6.89-11.609c0.78-1.311,1.16-2.78,1.1-4.271
			c2.69-1.31,6.85-3.49,11.24-6.33c10.29-6.66,16.63-13.54,18.84-20.47c1.34-4.19,1.17-8.28-0.49-12.21
			c1.17-1.63,2.37-4.03,2.6-7.17C97.48,78.41,94.82,72.72,89.18,66.96z M50.13,141.67l-33.07-19.63l6.67-11.25l33.07,19.63
			L50.13,141.67z M88.92,84.39c-4.6-2.98-9.99-2.79-14.45,0.81c-2.31,1.86-3.45,4.66-3.96,7.47C58.11,89.39,52.56,83,50.08,77.92
			c0-0.02-0.01-0.04-0.02-0.05c-0.1-0.17-0.17-0.35-0.25-0.52c0-0.01-0.01-0.02-0.01-0.02c-1.65-3.63-1.74-6.46-1.74-6.76
			c-0.01-2.2-1.78-3.98-3.98-3.99c-0.01,0-0.02,0-0.02,0c-2.2,0-3.99,1.78-4,3.98c0,0.18,0,0.75,0.1,1.63
			c-0.09-0.07-0.16-0.14-0.22-0.2c-1.55-1.57-4.07-1.59-5.65-0.04c-1.57,1.54-1.6,4.08-0.05,5.65c0.46,0.48,4.25,4.2,9.49,5.41
			c0.01,0,0.01,0,0.01,0c0.09,0.18,0.19,0.36,0.3,0.54c3.52,5.96,10.92,13.75,26.32,17.311c0.07,0.649,0.15,1.149,0.21,1.46
			c0.34,1.939,2.03,3.31,3.94,3.31c0.23,0,0.46-0.02,0.69-0.06c2.18-0.38,3.63-2.45,3.25-4.63c-0.55-3.17-0.42-8.331,1.05-9.521
			c2.79-2.25,5.28-0.58,6.91,1.33c1.55,2.66,1.84,5.22,0.94,8.06c-3.07,9.631-19.01,18.811-26.86,22.49l-32.6-19.34
			c-0.57-20.78,5.87-32.12,5.92-32.22c0.06-0.09,0.11-0.18,0.15-0.28c3.03-6.16,7.83-13.24,18.18-13.24c2.99,0,5.97,0.55,8.59,1.03
			l0.78,0.14c6.27,1.14,17.92,9.87,22.1,13.31c3.76,3.88,5.66,7.5,5.5,10.47C89.09,83.61,89.02,84.02,88.92,84.39z"/>
	</g>
	<g display="inline">
		<linearGradient id="SVGID_32_" gradientUnits="userSpaceOnUse" x1="102.8809" y1="100" x2="191.041" y2="100">
			<stop  offset="0" style="stop-color:#A0FE9A"/>
			<stop  offset="1" style="stop-color:#43DCA4"/>
		</linearGradient>
		<path fill="url(#SVGID_32_)" d="M189.93,118.14l-6.89-11.609c-0.72-1.21-1.73-2.181-2.92-2.84c0.51-21.851-6.05-34.26-6.96-35.871
			c-5.851-11.84-14.12-17.6-25.3-17.6c-3.721,0-7.221,0.64-10.04,1.16l-0.761,0.14c-9.55,1.74-24.29,13.79-25.939,15.16
			c-0.11,0.09-0.21,0.18-0.3,0.28c-5.641,5.76-8.301,11.45-7.9,16.91c0.23,3.14,1.42,5.54,2.6,7.17
			c-1.659,3.93-1.829,8.02-0.489,12.21c2.21,6.93,8.55,13.81,18.84,20.47c4.39,2.84,8.55,5.021,11.24,6.33
			c-0.061,1.49,0.319,2.96,1.1,4.271l6.89,11.609c1.41,2.38,3.98,3.851,6.7,3.851c0.01,0,0.01,0,0.01,0
			c1.351,0,2.681-0.36,3.841-1.05l33.68-19.98c1.78-1.06,3.02-2.77,3.5-4.8C191.3,121.97,190.98,119.91,189.93,118.14z
			 M112.65,100.82c-0.91-2.84-0.61-5.41,0.939-8.07c1.63-1.91,4.12-3.58,6.91-1.33c1.35,1.09,1.66,5.93,1.05,9.53
			c-0.38,2.17,1.07,4.24,3.25,4.62c0.23,0.04,0.46,0.06,0.69,0.06c1.91,0,3.6-1.37,3.939-3.31c0.061-0.311,0.141-0.811,0.21-1.46
			c15.4-3.561,22.801-11.351,26.32-17.311c0.11-0.18,0.21-0.36,0.3-0.54c0,0,0,0,0.01,0c5.24-1.21,9.03-4.93,9.49-5.41
			c1.55-1.57,1.521-4.11-0.05-5.65c-1.58-1.55-4.11-1.53-5.66,0.05c0,0.01-0.08,0.08-0.21,0.2c0.101-0.89,0.101-1.46,0.101-1.64
			c-0.011-2.2-1.801-3.98-4-3.98c0,0-0.011,0-0.021,0c-2.21,0.01-3.99,1.81-3.979,4.02c0,0.07-0.03,3.07-1.851,6.93
			c-0.02,0.04-0.04,0.09-0.06,0.13c-2.431,5.11-7.96,11.67-20.54,15c-0.51-2.81-1.66-5.6-3.96-7.46c-4.45-3.6-9.84-3.79-14.44-0.81
			c-0.1-0.34-0.16-0.71-0.189-1.1c-0.221-2.99,1.68-6.65,5.489-10.59c4.181-3.44,15.83-12.17,22.101-13.31l0.779-0.14
			c2.62-0.48,5.601-1.03,8.591-1.03c10.35,0,15.149,7.08,18.18,13.24c0.04,0.1,0.09,0.19,0.15,0.28c0.06,0.12,6.51,11.24,5.92,32.22
			l-32.601,19.35C131.66,119.63,115.73,110.47,112.65,100.82z M149.87,141.67l-6.67-11.25l33.069-19.63l6.671,11.25L149.87,141.67z"
			/>
	</g>
</g>
<g id="Layer_16" display="none">
	<linearGradient id="SVGID_33_" gradientUnits="userSpaceOnUse" x1="49.1797" y1="100" x2="134.9727" y2="100">
		<stop  offset="0" style="stop-color:#68FE9A"/>
		<stop  offset="1" style="stop-color:#43DCA4"/>
	</linearGradient>
	<path display="inline" fill="url(#SVGID_33_)" d="M117.33,28.67l-0.013,0.003h-0.015c-3.732,0.855-6.921,2.58-9.379,4.851
		c-2.175,2.01-3.771,4.44-4.654,7.06c-0.87,2.58-1.055,5.359-0.424,8.111c0.614,2.679,2.013,5.363,4.317,7.857
		c1.814,1.965,4.047,3.647,6.506,4.978c2.557,1.384,5.341,2.381,8.146,2.918l1.597,0.306l0.895,1.375
		c3.746,5.76,7.787,14.537,9.63,23.249c1.484,7.02,1.56,14.103-0.995,19.854v0.015c-2.216,4.983-7.022,9.796-12.336,13.013
		l-0.007-0.011c-2.823,1.708-5.843,2.997-8.771,3.67c-0.77,0.086-5.933,0.617-9.871-0.23c-2.251-0.484-3.817-1.765-4.711-3.322
		c-0.573-0.999-0.875-2.107-0.909-3.192c-0.034-1.07,0.193-2.118,0.677-3.011c0.623-1.148,1.688-2.039,3.185-2.376
		c2.559-0.573,5.332-1.267,7.885-2.418c10.063-4.535,11.599-14.221,6.906-24.028c-2.02-4.222-4.396-3.242-5.645,0.765l-5.698,18.886
		c-0.52,1.863-0.578,3.226-0.088,3.978c-1.273,0.37-2.553,0.674-3.782,0.95c-2.09,0.469-3.577,1.717-4.451,3.327
		c-0.646,1.188-0.947,2.576-0.903,3.987c0.044,1.396,0.429,2.815,1.157,4.084c1.146,1.997,3.136,3.634,5.98,4.246
		c3.052,0.657,6.74,0.548,8.874,0.4l11.422,49.799l0.003,0.012v0.016c0.721,3.156,0.092,6.314-1.51,8.868
		c-1.606,2.563-4.182,4.511-7.346,5.237l-0.013,0.003h-0.015c-3.165,0.721-6.335,0.097-8.897-1.512
		c-2.548-1.599-4.487-4.168-5.217-7.354l-12.307-53.65c-4.795,8.545-9.977,33.889-12.595,46.688
		c-0.723,3.536-1.265,6.188-1.531,7.238c-0.809,3.174-2.812,5.691-5.403,7.231c-2.59,1.54-5.77,2.082-8.921,1.301h-0.03
		c-3.154-0.806-5.689-2.82-7.235-5.426c-1.541-2.596-2.094-5.777-1.29-8.928c1.966-7.723,3.865-16.249,5.89-25.336
		c5.374-24.122,11.6-52.063,19.576-69.919c1.669-3.734,3.203-7.03,4.992-10.091c1.37-2.347,2.906-4.599,4.775-6.857
		c-2.314-3.325-3.873-6.91-4.747-10.616c-1.551-6.581-0.902-13.495,1.542-19.96c2.409-6.371,6.559-12.305,12.05-17.033
		c5.179-4.458,11.571-7.868,18.846-9.585l-0.002-0.003l0.016-0.004h0.015c2.819-0.664,5.652-0.116,7.954,1.306
		c2.304,1.423,4.064,3.715,4.736,6.537v0.015l0.004,0.015l0.003,0.013c0.665,2.824,0.116,5.66-1.307,7.963
		c-1.426,2.306-3.72,4.067-6.545,4.737L117.33,28.67L117.33,28.67z"/>
	<linearGradient id="SVGID_34_" gradientUnits="userSpaceOnUse" x1="115.751" y1="46.2163" x2="150.8203" y2="46.2163">
		<stop  offset="0" style="stop-color:#A0FE9A"/>
		<stop  offset="1" style="stop-color:#43DCA4"/>
	</linearGradient>
	<path display="inline" fill="url(#SVGID_34_)" d="M140.787,30.411L140.787,30.411c4.383,2.079,7.505,5.729,9.011,9.948
		s1.401,9.019-0.671,13.395c-1.277,2.693-3.159,4.928-5.427,6.598c-2.307,1.698-5.021,2.809-7.91,3.218
		c-2.695,0.382-5.647,0.011-8.351-0.941c-2.704-0.954-5.224-2.514-7.059-4.511c-2.382-2.592-3.915-5.831-4.433-9.257
		c-0.504-3.325-0.054-6.835,1.496-10.108l0.001-0.001c2.077-4.383,5.727-7.506,9.946-9.013
		C131.612,28.232,136.411,28.336,140.787,30.411L140.787,30.411z"/>
</g>
<g id="Layer_17" display="none">
	<g display="inline">
		<linearGradient id="SVGID_35_" gradientUnits="userSpaceOnUse" x1="86.7495" y1="24.9487" x2="121.04" y2="24.9487">
			<stop  offset="0" style="stop-color:#A0FE9A"/>
			<stop  offset="1" style="stop-color:#43DCA4"/>
		</linearGradient>
		<path fill="url(#SVGID_35_)" d="M103.895,7.803c4.731,0,9.018,1.921,12.121,5.024s5.024,7.39,5.024,12.121
			c0,4.737-1.92,9.021-5.021,12.123c-3.104,3.104-7.392,5.022-12.124,5.022c-4.738,0-9.024-1.917-12.126-5.019
			c-3.103-3.103-5.019-7.389-5.019-12.127c0-4.732,1.918-9.021,5.021-12.125C94.874,9.722,99.158,7.803,103.895,7.803L103.895,7.803
			z"/>
		<linearGradient id="SVGID_36_" gradientUnits="userSpaceOnUse" x1="35.3413" y1="146.7178" x2="70.061" y2="146.7178">
			<stop  offset="0" style="stop-color:#A0FE9A"/>
			<stop  offset="1" style="stop-color:#43DCA4"/>
		</linearGradient>
		<path fill="url(#SVGID_36_)" d="M70.061,146.719c0,9.586-7.772,17.359-17.36,17.359c-9.587,0-17.359-7.773-17.359-17.359
			c0-9.588,7.772-17.361,17.359-17.361C62.289,129.357,70.061,137.131,70.061,146.719z M67.942,143.307
			c-0.16-0.721-0.369-1.424-0.624-2.104l-2.131,4.52l-0.001-0.002c-0.042,0.09-0.078,0.178-0.107,0.268l-4.923-0.047
			c-0.048-0.119-0.11-0.242-0.185-0.373l-0.052-0.078l-4.079-5.355l0,0c-0.084-0.111-0.175-0.211-0.271-0.297l1.578-4.77
			c0.022-0.002,0.045-0.004,0.068-0.004c0.092-0.006,0.188-0.018,0.285-0.039l0,0l4.64-0.799c-0.562-0.432-1.154-0.826-1.773-1.178
			l-3.112,0.535l-0.057,0.014c-0.016,0.004-0.037,0.006-0.063,0.008s-0.063,0-0.107-0.004c-0.077-0.006-0.149-0.023-0.214-0.055
			c-0.07-0.031-0.14-0.08-0.208-0.146l-2.459-2.334c-0.513-0.051-1.034-0.076-1.562-0.076c-0.21,0-0.42,0.004-0.628,0.014
			l3.642,3.455c0.053,0.051,0.106,0.098,0.161,0.143l-1.589,4.803c-0.035,0.004-0.07,0.01-0.105,0.016
			c-0.104,0.02-0.209,0.047-0.312,0.088l-6.412,2.102c-0.171,0.057-0.324,0.127-0.461,0.213l-4.131-2.9
			c0.011-0.037,0.021-0.074,0.03-0.115c0.023-0.092,0.038-0.188,0.047-0.285l0,0l0.573-4.57c-0.58,0.418-1.13,0.875-1.646,1.365
			l-0.38,3.027l-0.003,0.061c-0.001,0.018-0.004,0.037-0.01,0.061c-0.005,0.02-0.017,0.055-0.035,0.1
			c-0.029,0.074-0.066,0.139-0.111,0.188c-0.05,0.055-0.116,0.107-0.2,0.154l-0.004,0.004l-2.899,1.648
			c-0.286,0.674-0.528,1.371-0.72,2.088l4.337-2.465l0.001,0.002c0.05-0.029,0.099-0.059,0.146-0.09l4.222,2.965
			c-0.016,0.111-0.022,0.229-0.021,0.35l0.081,6.76c0.002,0.158,0.022,0.314,0.06,0.465l-4.039,3.045
			c-0.011-0.006-0.021-0.014-0.03-0.018c-0.088-0.055-0.185-0.102-0.292-0.143l-4.228-1.932c0.22,0.678,0.485,1.334,0.791,1.965
			l2.862,1.311l0.055,0.021c0.014,0.006,0.033,0.016,0.056,0.029c0.034,0.021,0.063,0.041,0.087,0.061
			c0.06,0.049,0.108,0.104,0.146,0.166c0.038,0.066,0.068,0.145,0.087,0.236v0.002l0.722,3.35c0.56,0.475,1.152,0.91,1.775,1.303
			l-1.066-4.955h-0.001c-0.018-0.084-0.039-0.164-0.064-0.242l4.033-3.041c0.116,0.057,0.242,0.104,0.377,0.133l6.228,1.988
			c0.123,0.051,0.241,0.084,0.354,0.104c0.004,0.002,0.009,0.002,0.013,0.004l1.43,4.84c-0.015,0.012-0.029,0.023-0.043,0.033
			h-0.003c-0.08,0.064-0.157,0.137-0.229,0.217l-3.334,3.32c0.227,0.01,0.453,0.016,0.683,0.016c0.484,0,0.964-0.023,1.438-0.066
			l2.264-2.254l0.041-0.043c0.012-0.014,0.027-0.029,0.047-0.045l-0.001-0.002c0.024-0.018,0.055-0.037,0.089-0.057
			c0.064-0.039,0.133-0.064,0.204-0.078c0.072-0.014,0.158-0.012,0.256,0.002h0.003l3.409,0.502
			c0.637-0.359,1.246-0.766,1.824-1.209l-5.019-0.74l0,0c-0.078-0.012-0.155-0.02-0.232-0.023l-1.409-4.773
			c0.127-0.102,0.242-0.223,0.348-0.365v-0.002l4.079-5.521l0.046-0.068c0.058-0.098,0.108-0.199,0.151-0.301l4.995,0.047v0.002
			c0.041,0.104,0.09,0.203,0.151,0.299l2.185,4.105c0.23-0.666,0.418-1.354,0.558-2.059l-1.477-2.773l-0.028-0.051
			c-0.01-0.016-0.019-0.033-0.027-0.055c-0.014-0.035-0.024-0.07-0.033-0.104c-0.017-0.07-0.021-0.145-0.012-0.221
			c0.009-0.074,0.033-0.154,0.074-0.24v-0.004L67.942,143.307L67.942,143.307z M55.511,139.471L55.511,139.471z M47.425,143.393
			c-0.002-0.123,0.017-0.213,0.055-0.268c0.033-0.047,0.101-0.088,0.204-0.121l6.412-2.104l0.062-0.025
			c0.019-0.008,0.037-0.012,0.056-0.016c0.027-0.006,0.057-0.008,0.088-0.008v0.004c0.046,0,0.085,0.008,0.116,0.023
			c0.047,0.025,0.095,0.072,0.146,0.139l0.003,0.002l4.057,5.324c0.034,0.064,0.062,0.125,0.081,0.182
			c0.012,0.037,0.019,0.066,0.019,0.09c0,0.039-0.008,0.084-0.022,0.131c-0.02,0.062-0.05,0.129-0.086,0.197l-4.054,5.484
			l-0.003,0.004c-0.046,0.062-0.09,0.105-0.132,0.127c-0.032,0.016-0.074,0.025-0.124,0.025c-0.035,0-0.066-0.002-0.091-0.008
			c-0.021-0.004-0.038-0.006-0.049-0.012l-0.072-0.025l-6.328-2.02l-0.066-0.021c-0.042-0.01-0.08-0.037-0.107-0.076
			c-0.052-0.07-0.081-0.166-0.082-0.27L47.425,143.393L47.425,143.393z"/>
		<linearGradient id="SVGID_37_" gradientUnits="userSpaceOnUse" x1="70.9346" y1="117.2227" x2="164.6582" y2="117.2227">
			<stop  offset="0" style="stop-color:#68FE9A"/>
			<stop  offset="1" style="stop-color:#43DCA4"/>
		</linearGradient>
		<path fill="url(#SVGID_37_)" d="M160.87,92.562c-4.241,3.254-10.322,2.455-13.575-1.786c-1.254-1.631-3.296-4.168-5.799-7.092
			c1.597,10.5,2.013,21.843-0.857,30.968c-2.271,7.232-8.951,11.865-16.159,11.865c-1.68,0-3.394-0.252-5.084-0.783
			c-8.927-2.803-13.889-12.316-11.081-21.244c1.278-4.071,0.475-12.513-1.403-21.557L90.378,96.286
			c-1.791,1.447-3.94,2.148-6.075,2.148c-2.827,0-5.626-1.229-7.537-3.597c-3.36-4.158-2.712-10.258,1.446-13.617l22.541-18.203
			c0.111-0.416,0.232-0.853,0.368-1.307c-1.191-7.857,3.306-15.71,11.071-18.474c5.258-1.874,10.825-0.993,15.129,1.897
			c1.277,0.537,2.608,1.244,3.979,2.159c14.243,9.493,30.664,30.789,31.356,31.689C165.914,83.229,165.11,89.304,160.87,92.562z
			 M107.056,105.303c0.697-2.221,0.771-5.748,0.393-9.958c-1.378,0.75-2.594,1.846-3.504,3.259L87.969,123.4
			c-0.198,0.311-0.383,0.629-0.542,0.959c-2.333,4.721-6.221,13.434-6.322,19.195c-0.431,3.762-5.669,18.855-7.906,22.084
			c-3.378,4.023-2.933,10.037,1.041,13.512c1.84,1.607,4.11,2.396,6.371,2.396c2.696,0,5.379-1.119,7.291-3.307
			c2.431-2.779,5.189-8.5,8.195-17.006c1.961-5.539,4.29-12.984,4.367-17.234c0.232-1.637,2.125-6.527,4.095-10.594l6.944-10.779
			C106.999,118.311,105.057,111.66,107.056,105.303z M134.167,133.9l0.843-9.846c-2.977,2.393-6.718,3.76-10.62,3.76
			c-1.68,0-3.393-0.252-5.083-0.785c-1.38-0.432-2.664-1.027-3.841-1.754l-0.727,8.484c-0.083,0.969-0.02,1.945,0.188,2.895
			c0.296,1.336,7.271,32.848,18.691,51.012c1.84,2.928,4.986,4.531,8.206,4.531c1.762,0,3.543-0.48,5.141-1.486
			c4.531-2.848,5.892-8.82,3.045-13.348C141.603,163.979,135.58,139.898,134.167,133.9z"/>
	</g>
</g>
<g id="Layer_18" display="none">
	<linearGradient id="SVGID_38_" gradientUnits="userSpaceOnUse" x1="15.7251" y1="52.5713" x2="53.8755" y2="52.5713">
		<stop  offset="0" style="stop-color:#A0FE9A"/>
		<stop  offset="1" style="stop-color:#43DCA4"/>
	</linearGradient>
	<path display="inline" fill="url(#SVGID_38_)" d="M48.288,39.095c3.452,3.455,5.588,8.223,5.588,13.476
		c0,5.262-2.134,10.026-5.583,13.48c-3.46,3.463-8.228,5.604-13.483,5.604c-5.272,0-10.044-2.135-13.496-5.587
		c-3.453-3.453-5.588-8.224-5.588-13.497c0-5.265,2.137-10.037,5.592-13.492c3.452-3.452,8.222-5.59,13.492-5.59
		C40.063,33.488,44.83,35.632,48.288,39.095L48.288,39.095z"/>
	<linearGradient id="SVGID_39_" gradientUnits="userSpaceOnUse" x1="18.1509" y1="104.4873" x2="184.2803" y2="104.4873">
		<stop  offset="0" style="stop-color:#68FE9A"/>
		<stop  offset="1" style="stop-color:#43DCA4"/>
	</linearGradient>
	<path display="inline" fill="url(#SVGID_39_)" d="M18.151,128.2V90.604c0-4.576,1.514-8.26,3.914-11.031
		c1.7-1.961,3.832-3.426,6.175-4.396c2.288-0.946,4.763-1.421,7.21-1.421c3.671,0,7.37,1.053,10.404,3.156
		c0.604-0.084,1.204-0.189,1.795-0.325c0.94-0.215,1.806-0.496,2.56-0.872l-0.003-0.006c3.891-1.969,9.478-7.329,10.633-12.627
		c0.423-1.936,0.827-3.791,1.39-5.611c1.458-4.736,4.903-7.36,8.948-6.649c13.336,2.345,0.766,34.314-19.237,40.455l0.14,35.276
		c5.231,16.09,1.388,33.427-11.539,56.812l-0.003-0.001c-2.388,5.075-4.782,8.103-9.049,7.846c-1.706-0.103-3.264-0.256-4.831-1.029
		c-1.522-0.753-1.28-0.579-3.057-2.272c-3.401-3.612,1.142-9.064,3.751-14.746c11.33-24.654,5.982-28.206,2.776-30.57
		C26.674,140.044,18.151,137.78,18.151,128.2L18.151,128.2z M81.61,43.72l0.84,4.51l8.35,41.8l0.59,3.11h26.55l0.6-3.08l7.52-38.73
		h27.761v-7.61H81.61z M108.36,51.33h9.939l-2.81,14.5h-7.13V51.33z M100.75,85.53h-3.06l-2.45-12.08h5.51V85.53z M100.75,65.83
		H93.7l-2.94-14.5h9.99V65.83z M111.68,85.53h-3.319V73.45h5.659L111.68,85.53z M157.78,93h26.489v-3.81l0.011-67.63v-3.81H127.18
		v22.16h30.44v15.23h-30.44V93h23.011H157.78z"/>
	<linearGradient id="SVGID_40_" gradientUnits="userSpaceOnUse" x1="67.6655" y1="24.2295" x2="100.5195" y2="24.2295">
		<stop  offset="0" style="stop-color:#A0FE9A"/>
		<stop  offset="1" style="stop-color:#43DCA4"/>
	</linearGradient>
	<path display="inline" fill="url(#SVGID_40_)" d="M83.408,39.272v-8.181c-1.588,0.112-3.103,0.608-4.494,1.378
		c-1.588,0.878-3.016,2.11-4.207,3.535c-0.355-0.284-0.699-0.584-1.027-0.898c1.294-1.541,2.846-2.877,4.577-3.835
		c1.587-0.877,3.323-1.438,5.151-1.552v-4.806H69.035v-1.369h14.373v-4.806c-1.828-0.113-3.564-0.674-5.151-1.552
		c-1.731-0.957-3.283-2.293-4.577-3.834c0.328-0.315,0.672-0.615,1.027-0.899c1.191,1.425,2.619,2.658,4.207,3.535
		c1.392,0.771,2.906,1.267,4.494,1.378V9.187h1.369v8.181c1.588-0.111,3.103-0.607,4.494-1.378c1.588-0.877,3.016-2.11,4.207-3.535
		c0.356,0.284,0.699,0.584,1.027,0.899c-1.294,1.541-2.846,2.877-4.577,3.834c-1.587,0.878-3.323,1.438-5.151,1.552v4.806H99.15
		v1.369H84.777v4.806c1.828,0.113,3.564,0.675,5.151,1.552c1.731,0.958,3.283,2.294,4.577,3.835
		c-0.328,0.314-0.671,0.614-1.027,0.898c-1.191-1.425-2.619-2.657-4.207-3.535c-1.392-0.77-2.906-1.266-4.494-1.378v8.181H83.408
		L83.408,39.272z M84.092,7.803c-9.072,0-16.427,7.355-16.427,16.427c0,9.072,7.354,16.427,16.427,16.427
		s16.427-7.354,16.427-16.427C100.52,15.158,93.165,7.803,84.092,7.803z"/>
</g>
<g id="Layer_19">
	<linearGradient id="SVGID_41_" gradientUnits="userSpaceOnUse" x1="28.3179" y1="118.9141" x2="169.6504" y2="118.9141">
		<stop  offset="0" style="stop-color:#68FE9A"/>
		<stop  offset="1" style="stop-color:#43DCA4"/>
	</linearGradient>
	<path fill="url(#SVGID_41_)" d="M159.182,71.7v10.572h-15.705v-4.029c-1.85,0.292-3.744,0.444-5.676,0.444
		c-1.625,0-3.225-0.109-4.793-0.316v3.901h-15.703v-9.945c-5.797-3.989-10.371-9.622-13.055-16.228H38.787v-5.234
		c0-2.891-2.344-5.234-5.234-5.234c-2.891,0-5.235,2.344-5.235,5.234v136.098c0,2.891,2.344,5.234,5.235,5.234
		c2.891,0,5.234-2.344,5.234-5.234v-41.876h120.395v41.876c0,2.891,2.342,5.234,5.234,5.234c2.889,0,5.234-2.344,5.234-5.234V59.71
		C167.084,64.441,163.496,68.536,159.182,71.7z M91.132,66.569h15.704v15.703H91.132V66.569z M91.132,92.741h15.704v15.704H91.132
		V92.741z M54.491,134.617H38.787v-15.703h15.704V134.617z M54.491,82.272c-2.891,0-5.234,2.344-5.234,5.234
		c0,2.892,2.343,5.234,5.234,5.234v15.704H38.787V66.569h15.704V82.272z M80.663,134.617H64.959v-15.703h15.703V134.617z
		 M80.663,108.445H64.959V92.741h15.703V108.445z M80.663,82.272H64.959V66.569h15.703V82.272z M133.008,134.617H91.132v-15.703
		h15.704c0,2.891,2.344,5.234,5.234,5.234s5.234-2.344,5.234-5.234h15.703V134.617z M133.008,108.445h-15.703V92.741h15.703V108.445
		z M159.182,134.617h-15.705v-15.703h15.705V134.617z M159.182,108.445h-15.705V92.741h15.705V108.445z"/>
	<g id="_323180696">
		<linearGradient id="_323182592_1_" gradientUnits="userSpaceOnUse" x1="106.2549" y1="42.0483" x2="170.2734" y2="42.0483">
			<stop  offset="0" style="stop-color:#A0FE9A"/>
			<stop  offset="1" style="stop-color:#43DCA4"/>
		</linearGradient>
		<path id="_323182592" fill="url(#_323182592_1_)" d="M138.265,10.019c8.836,0,16.839,3.587,22.634,9.387
			c5.793,5.797,9.375,13.802,9.375,22.643s-3.582,16.847-9.375,22.643c-5.795,5.799-13.798,9.387-22.634,9.387
			s-16.839-3.587-22.635-9.387c-5.793-5.796-9.375-13.802-9.375-22.643s3.582-16.847,9.375-22.643
			C121.426,13.606,129.429,10.019,138.265,10.019z M159.013,21.282c-5.308-5.311-12.642-8.594-20.748-8.594
			s-15.44,3.284-20.748,8.594c-5.31,5.313-8.594,12.655-8.594,20.766s3.284,15.453,8.594,20.766
			c5.308,5.31,12.642,8.595,20.748,8.595s15.44-3.285,20.748-8.595c5.309-5.312,8.594-12.655,8.594-20.766
			S164.321,26.595,159.013,21.282z"/>
		<linearGradient id="_323181848_1_" gradientUnits="userSpaceOnUse" x1="114.2686" y1="35.7334" x2="137.2432" y2="35.7334">
			<stop  offset="0" style="stop-color:#A0FE9A"/>
			<stop  offset="1" style="stop-color:#43DCA4"/>
		</linearGradient>
		<path id="_323181848" fill="url(#_323181848_1_)" d="M137.243,42.545c-6.03-3.381-10.423-7.194-13.176-11.582
			c-2.398-3.824-3.543-8.048-3.433-12.761c-1.181,0.874-2.291,1.834-3.327,2.87c-1.103,1.105-2.121,2.295-3.039,3.562
			c0.122,5.56,1.99,10.662,5.622,15.425c3.569,4.68,8.843,9.047,15.841,13.204C136.688,50.13,137.192,46.557,137.243,42.545
			L137.243,42.545z"/>
		<linearGradient id="_323181536_1_" gradientUnits="userSpaceOnUse" x1="108.998" y1="45.4961" x2="134.8008" y2="45.4961">
			<stop  offset="0" style="stop-color:#A0FE9A"/>
			<stop  offset="1" style="stop-color:#43DCA4"/>
		</linearGradient>
		<path id="_323181536" fill="url(#_323181536_1_)" d="M134.801,55.842c-7.512-4.411-13.187-9.086-17.05-14.15
			c-3.157-4.141-5.099-8.532-5.836-13.238c-1.415,2.741-2.414,5.732-2.917,8.89c0.015,0.035,0.028,0.072,0.039,0.108
			c2.02,6.41,4.749,11.644,8.387,15.832c3.445,3.97,7.728,7.018,13.012,9.255c1.158-1.198,2.169-2.536,3.029-4.014
			C133.958,57.678,134.403,56.783,134.801,55.842L134.801,55.842z"/>
		<linearGradient id="_323181392_1_" gradientUnits="userSpaceOnUse" x1="108.708" y1="55.8857" x2="128.2314" y2="55.8857">
			<stop  offset="0" style="stop-color:#A0FE9A"/>
			<stop  offset="1" style="stop-color:#43DCA4"/>
		</linearGradient>
		<path id="_323181392" fill="url(#_323181392_1_)" d="M128.231,64.507c-5.142-2.348-9.374-5.471-12.84-9.465
			c-2.669-3.072-4.873-6.651-6.684-10.778c0.54,7.309,3.725,13.881,8.6,18.759c1.718,1.719,3.645,3.228,5.743,4.484
			C124.975,66.69,126.701,65.69,128.231,64.507L128.231,64.507z"/>
		<linearGradient id="_323181752_1_" gradientUnits="userSpaceOnUse" x1="126.0332" y1="54.8857" x2="150.0693" y2="54.8857">
			<stop  offset="0" style="stop-color:#A0FE9A"/>
			<stop  offset="1" style="stop-color:#43DCA4"/>
		</linearGradient>
		<path id="_323181752" fill="url(#_323181752_1_)" d="M135.793,59.874c-2.308,3.964-5.561,7.03-9.76,9.198
			c2.834,1.286,5.907,2.138,9.133,2.473c4.894-2.763,8.496-7.007,10.938-12.678c2.387-5.546,3.669-12.443,3.965-20.64
			c-3.213,0.736-6.588,2.124-10.139,4.161C139.866,49.418,138.484,55.247,135.793,59.874L135.793,59.874z"/>
		<linearGradient id="_323181512_1_" gradientUnits="userSpaceOnUse" x1="139.8105" y1="54.6348" x2="160.8896" y2="54.6348">
			<stop  offset="0" style="stop-color:#A0FE9A"/>
			<stop  offset="1" style="stop-color:#43DCA4"/>
		</linearGradient>
		<path id="_323181512" fill="url(#_323181512_1_)" d="M152.771,37.758c-0.268,8.79-1.62,16.199-4.193,22.172
			c-2.095,4.867-4.993,8.789-8.768,11.734c3.269-0.167,6.396-0.865,9.3-2.006c4.62-4.812,7.848-9.772,9.737-15.025
			c1.835-5.091,2.42-10.489,1.809-16.326c-1.831-0.498-3.711-0.732-5.649-0.699C154.271,37.619,153.527,37.669,152.771,37.758
			L152.771,37.758z"/>
		<linearGradient id="_323181728_1_" gradientUnits="userSpaceOnUse" x1="155.6816" y1="52.6709" x2="167.9014" y2="52.6709">
			<stop  offset="0" style="stop-color:#A0FE9A"/>
			<stop  offset="1" style="stop-color:#43DCA4"/>
		</linearGradient>
		<path id="_323181728" fill="url(#_323181728_1_)" d="M163.449,39.29c0.445,5.753-0.23,11.131-2.072,16.249
			c-1.31,3.636-3.203,7.125-5.695,10.513c1.258-0.917,2.442-1.929,3.539-3.028c5.363-5.366,8.681-12.782,8.681-20.975
			c0-0.066,0-0.133-0.001-0.2C166.451,40.802,164.968,39.95,163.449,39.29L163.449,39.29z"/>
		<linearGradient id="_323181704_1_" gradientUnits="userSpaceOnUse" x1="129.5117" y1="33.293" x2="167.6895" y2="33.293">
			<stop  offset="0" style="stop-color:#A0FE9A"/>
			<stop  offset="1" style="stop-color:#43DCA4"/>
		</linearGradient>
		<path id="_323181704" fill="url(#_323181704_1_)" d="M154.967,34.922c4.509-0.075,8.737,1.108,12.723,3.554
			c-0.369-3.079-1.21-6.011-2.446-8.725c-4.888-2.748-10.307-3.783-16.334-3.098c-5.856,0.665-12.3,2.952-19.397,6.862
			c2.324,2.379,5.306,4.575,8.941,6.624c5.869-3.39,11.354-5.131,16.512-5.216H154.967z"/>
		<linearGradient id="_323181632_1_" gradientUnits="userSpaceOnUse" x1="124.0322" y1="24.2812" x2="163.0098" y2="24.2812">
			<stop  offset="0" style="stop-color:#A0FE9A"/>
			<stop  offset="1" style="stop-color:#43DCA4"/>
		</linearGradient>
		<path id="_323181632" fill="url(#_323181632_1_)" d="M127.691,31.444c7.609-4.255,14.56-6.744,20.924-7.467
			c5.18-0.588,9.967-0.008,14.395,1.741c-1.104-1.675-2.376-3.232-3.789-4.646c-0.918-0.918-1.896-1.777-2.928-2.569
			c-6.538-1.492-12.352-1.806-17.718-0.812c-5.142,0.95-9.906,3.111-14.543,6.597c0.502,1.846,1.272,3.59,2.311,5.244
			C126.752,30.182,127.2,30.819,127.691,31.444L127.691,31.444z"/>
		<linearGradient id="_323181224_1_" gradientUnits="userSpaceOnUse" x1="123.3232" y1="16.8818" x2="149.6846" y2="16.8818">
			<stop  offset="0" style="stop-color:#A0FE9A"/>
			<stop  offset="1" style="stop-color:#43DCA4"/>
		</linearGradient>
		<path id="_323181224" fill="url(#_323181224_1_)" d="M123.471,21.371c4.645-3.292,9.445-5.367,14.62-6.324
			c3.665-0.678,7.504-0.792,11.594-0.375c-3.514-1.469-7.373-2.279-11.42-2.279c-5.4,0-10.46,1.442-14.818,3.962
			C123.274,18.102,123.282,19.772,123.471,21.371L123.471,21.371z"/>
	</g>
</g>
</svg>
